<?xml version="1.0" encoding="utf-8" standalone="no"?>
<!DOCTYPE svg PUBLIC "-//W3C//DTD SVG 1.1//EN"
  "http://www.w3.org/Graphics/SVG/1.1/DTD/svg11.dtd">
<svg xmlns:xlink="http://www.w3.org/1999/xlink" width="713.377pt" height="378.846898pt" viewBox="0 0 713.377 378.846898" xmlns="http://www.w3.org/2000/svg" version="1.1">
 <metadata>
  <rdf:RDF xmlns:dc="http://purl.org/dc/elements/1.1/" xmlns:cc="http://creativecommons.org/ns#" xmlns:rdf="http://www.w3.org/1999/02/22-rdf-syntax-ns#">
   <cc:Work>
    <dc:type rdf:resource="http://purl.org/dc/dcmitype/StillImage"/>
    <dc:date>2022-07-04T16:22:13.998506</dc:date>
    <dc:format>image/svg+xml</dc:format>
    <dc:creator>
     <cc:Agent>
      <dc:title>Matplotlib v3.5.1, https://matplotlib.org/</dc:title>
     </cc:Agent>
    </dc:creator>
   </cc:Work>
  </rdf:RDF>
 </metadata>
 <defs>
  <style type="text/css">*{stroke-linejoin: round; stroke-linecap: butt}</style>
 </defs>
 <g id="figure_1">
  <g id="patch_1">
   <path d="M 0 378.846898 
L 713.377 378.846898 
L 713.377 0 
L 0 0 
z
" style="fill: #ffffff"/>
  </g>
  <g id="axes_1">
   <g id="patch_2">
    <path d="M 36.577 296.388 
L 227.891286 296.388 
L 227.891286 24.588 
L 36.577 24.588 
z
" style="fill: #ffffff"/>
   </g>
   <g id="matplotlib.axis_1">
    <g id="xtick_1">
     <g id="text_1">
      <!-- 0 -->
      <g style="fill: #262626" transform="translate(48.543787 316.123672)scale(0.143 -0.143)">
       <defs>
        <path id="ArialMT-30" d="M 266 2259 
Q 266 3072 433 3567 
Q 600 4063 929 4331 
Q 1259 4600 1759 4600 
Q 2128 4600 2406 4451 
Q 2684 4303 2865 4023 
Q 3047 3744 3150 3342 
Q 3253 2941 3253 2259 
Q 3253 1453 3087 958 
Q 2922 463 2592 192 
Q 2263 -78 1759 -78 
Q 1097 -78 719 397 
Q 266 969 266 2259 
z
M 844 2259 
Q 844 1131 1108 757 
Q 1372 384 1759 384 
Q 2147 384 2411 759 
Q 2675 1134 2675 2259 
Q 2675 3391 2411 3762 
Q 2147 4134 1753 4134 
Q 1366 4134 1134 3806 
Q 844 3388 844 2259 
z
" transform="scale(0.015625)"/>
       </defs>
       <use xlink:href="#ArialMT-30"/>
      </g>
     </g>
    </g>
    <g id="xtick_2">
     <g id="text_2">
      <!-- 1 -->
      <g style="fill: #262626" transform="translate(80.429501 316.123672)scale(0.143 -0.143)">
       <defs>
        <path id="ArialMT-31" d="M 2384 0 
L 1822 0 
L 1822 3584 
Q 1619 3391 1289 3197 
Q 959 3003 697 2906 
L 697 3450 
Q 1169 3672 1522 3987 
Q 1875 4303 2022 4600 
L 2384 4600 
L 2384 0 
z
" transform="scale(0.015625)"/>
       </defs>
       <use xlink:href="#ArialMT-31"/>
      </g>
     </g>
    </g>
    <g id="xtick_3">
     <g id="text_3">
      <!-- 2 -->
      <g style="fill: #262626" transform="translate(112.315215 316.123672)scale(0.143 -0.143)">
       <defs>
        <path id="ArialMT-32" d="M 3222 541 
L 3222 0 
L 194 0 
Q 188 203 259 391 
Q 375 700 629 1000 
Q 884 1300 1366 1694 
Q 2113 2306 2375 2664 
Q 2638 3022 2638 3341 
Q 2638 3675 2398 3904 
Q 2159 4134 1775 4134 
Q 1369 4134 1125 3890 
Q 881 3647 878 3216 
L 300 3275 
Q 359 3922 746 4261 
Q 1134 4600 1788 4600 
Q 2447 4600 2831 4234 
Q 3216 3869 3216 3328 
Q 3216 3053 3103 2787 
Q 2991 2522 2730 2228 
Q 2469 1934 1863 1422 
Q 1356 997 1212 845 
Q 1069 694 975 541 
L 3222 541 
z
" transform="scale(0.015625)"/>
       </defs>
       <use xlink:href="#ArialMT-32"/>
      </g>
     </g>
    </g>
    <g id="xtick_4">
     <g id="text_4">
      <!-- 3 -->
      <g style="fill: #262626" transform="translate(144.20093 316.123672)scale(0.143 -0.143)">
       <defs>
        <path id="ArialMT-33" d="M 269 1209 
L 831 1284 
Q 928 806 1161 595 
Q 1394 384 1728 384 
Q 2125 384 2398 659 
Q 2672 934 2672 1341 
Q 2672 1728 2419 1979 
Q 2166 2231 1775 2231 
Q 1616 2231 1378 2169 
L 1441 2663 
Q 1497 2656 1531 2656 
Q 1891 2656 2178 2843 
Q 2466 3031 2466 3422 
Q 2466 3731 2256 3934 
Q 2047 4138 1716 4138 
Q 1388 4138 1169 3931 
Q 950 3725 888 3313 
L 325 3413 
Q 428 3978 793 4289 
Q 1159 4600 1703 4600 
Q 2078 4600 2393 4439 
Q 2709 4278 2876 4000 
Q 3044 3722 3044 3409 
Q 3044 3113 2884 2869 
Q 2725 2625 2413 2481 
Q 2819 2388 3044 2092 
Q 3269 1797 3269 1353 
Q 3269 753 2831 336 
Q 2394 -81 1725 -81 
Q 1122 -81 723 278 
Q 325 638 269 1209 
z
" transform="scale(0.015625)"/>
       </defs>
       <use xlink:href="#ArialMT-33"/>
      </g>
     </g>
    </g>
    <g id="xtick_5">
     <g id="text_5">
      <!-- 4 -->
      <g style="fill: #262626" transform="translate(176.086644 316.123672)scale(0.143 -0.143)">
       <defs>
        <path id="ArialMT-34" d="M 2069 0 
L 2069 1097 
L 81 1097 
L 81 1613 
L 2172 4581 
L 2631 4581 
L 2631 1613 
L 3250 1613 
L 3250 1097 
L 2631 1097 
L 2631 0 
L 2069 0 
z
M 2069 1613 
L 2069 3678 
L 634 1613 
L 2069 1613 
z
" transform="scale(0.015625)"/>
       </defs>
       <use xlink:href="#ArialMT-34"/>
      </g>
     </g>
    </g>
    <g id="xtick_6">
     <g id="text_6">
      <!-- 5 -->
      <g style="fill: #262626" transform="translate(207.972358 316.123672)scale(0.143 -0.143)">
       <defs>
        <path id="ArialMT-35" d="M 266 1200 
L 856 1250 
Q 922 819 1161 601 
Q 1400 384 1738 384 
Q 2144 384 2425 690 
Q 2706 997 2706 1503 
Q 2706 1984 2436 2262 
Q 2166 2541 1728 2541 
Q 1456 2541 1237 2417 
Q 1019 2294 894 2097 
L 366 2166 
L 809 4519 
L 3088 4519 
L 3088 3981 
L 1259 3981 
L 1013 2750 
Q 1425 3038 1878 3038 
Q 2478 3038 2890 2622 
Q 3303 2206 3303 1553 
Q 3303 931 2941 478 
Q 2500 -78 1738 -78 
Q 1113 -78 717 272 
Q 322 622 266 1200 
z
" transform="scale(0.015625)"/>
       </defs>
       <use xlink:href="#ArialMT-35"/>
      </g>
     </g>
    </g>
    <g id="text_7">
     <!-- Corruption level -->
     <g style="fill: #262626" transform="translate(77.610987 334.322109)scale(0.156 -0.156)">
      <defs>
       <path id="ArialMT-43" d="M 3763 1606 
L 4369 1453 
Q 4178 706 3683 314 
Q 3188 -78 2472 -78 
Q 1731 -78 1267 223 
Q 803 525 561 1097 
Q 319 1669 319 2325 
Q 319 3041 592 3573 
Q 866 4106 1370 4382 
Q 1875 4659 2481 4659 
Q 3169 4659 3637 4309 
Q 4106 3959 4291 3325 
L 3694 3184 
Q 3534 3684 3231 3912 
Q 2928 4141 2469 4141 
Q 1941 4141 1586 3887 
Q 1231 3634 1087 3207 
Q 944 2781 944 2328 
Q 944 1744 1114 1308 
Q 1284 872 1643 656 
Q 2003 441 2422 441 
Q 2931 441 3284 734 
Q 3638 1028 3763 1606 
z
" transform="scale(0.015625)"/>
       <path id="ArialMT-6f" d="M 213 1659 
Q 213 2581 725 3025 
Q 1153 3394 1769 3394 
Q 2453 3394 2887 2945 
Q 3322 2497 3322 1706 
Q 3322 1066 3130 698 
Q 2938 331 2570 128 
Q 2203 -75 1769 -75 
Q 1072 -75 642 372 
Q 213 819 213 1659 
z
M 791 1659 
Q 791 1022 1069 705 
Q 1347 388 1769 388 
Q 2188 388 2466 706 
Q 2744 1025 2744 1678 
Q 2744 2294 2464 2611 
Q 2184 2928 1769 2928 
Q 1347 2928 1069 2612 
Q 791 2297 791 1659 
z
" transform="scale(0.015625)"/>
       <path id="ArialMT-72" d="M 416 0 
L 416 3319 
L 922 3319 
L 922 2816 
Q 1116 3169 1280 3281 
Q 1444 3394 1641 3394 
Q 1925 3394 2219 3213 
L 2025 2691 
Q 1819 2813 1613 2813 
Q 1428 2813 1281 2702 
Q 1134 2591 1072 2394 
Q 978 2094 978 1738 
L 978 0 
L 416 0 
z
" transform="scale(0.015625)"/>
       <path id="ArialMT-75" d="M 2597 0 
L 2597 488 
Q 2209 -75 1544 -75 
Q 1250 -75 995 37 
Q 741 150 617 320 
Q 494 491 444 738 
Q 409 903 409 1263 
L 409 3319 
L 972 3319 
L 972 1478 
Q 972 1038 1006 884 
Q 1059 663 1231 536 
Q 1403 409 1656 409 
Q 1909 409 2131 539 
Q 2353 669 2445 892 
Q 2538 1116 2538 1541 
L 2538 3319 
L 3100 3319 
L 3100 0 
L 2597 0 
z
" transform="scale(0.015625)"/>
       <path id="ArialMT-70" d="M 422 -1272 
L 422 3319 
L 934 3319 
L 934 2888 
Q 1116 3141 1344 3267 
Q 1572 3394 1897 3394 
Q 2322 3394 2647 3175 
Q 2972 2956 3137 2557 
Q 3303 2159 3303 1684 
Q 3303 1175 3120 767 
Q 2938 359 2589 142 
Q 2241 -75 1856 -75 
Q 1575 -75 1351 44 
Q 1128 163 984 344 
L 984 -1272 
L 422 -1272 
z
M 931 1641 
Q 931 1000 1190 694 
Q 1450 388 1819 388 
Q 2194 388 2461 705 
Q 2728 1022 2728 1688 
Q 2728 2322 2467 2637 
Q 2206 2953 1844 2953 
Q 1484 2953 1207 2617 
Q 931 2281 931 1641 
z
" transform="scale(0.015625)"/>
       <path id="ArialMT-74" d="M 1650 503 
L 1731 6 
Q 1494 -44 1306 -44 
Q 1000 -44 831 53 
Q 663 150 594 308 
Q 525 466 525 972 
L 525 2881 
L 113 2881 
L 113 3319 
L 525 3319 
L 525 4141 
L 1084 4478 
L 1084 3319 
L 1650 3319 
L 1650 2881 
L 1084 2881 
L 1084 941 
Q 1084 700 1114 631 
Q 1144 563 1211 522 
Q 1278 481 1403 481 
Q 1497 481 1650 503 
z
" transform="scale(0.015625)"/>
       <path id="ArialMT-69" d="M 425 3934 
L 425 4581 
L 988 4581 
L 988 3934 
L 425 3934 
z
M 425 0 
L 425 3319 
L 988 3319 
L 988 0 
L 425 0 
z
" transform="scale(0.015625)"/>
       <path id="ArialMT-6e" d="M 422 0 
L 422 3319 
L 928 3319 
L 928 2847 
Q 1294 3394 1984 3394 
Q 2284 3394 2536 3286 
Q 2788 3178 2913 3003 
Q 3038 2828 3088 2588 
Q 3119 2431 3119 2041 
L 3119 0 
L 2556 0 
L 2556 2019 
Q 2556 2363 2490 2533 
Q 2425 2703 2258 2804 
Q 2091 2906 1866 2906 
Q 1506 2906 1245 2678 
Q 984 2450 984 1813 
L 984 0 
L 422 0 
z
" transform="scale(0.015625)"/>
       <path id="ArialMT-20" transform="scale(0.015625)"/>
       <path id="ArialMT-6c" d="M 409 0 
L 409 4581 
L 972 4581 
L 972 0 
L 409 0 
z
" transform="scale(0.015625)"/>
       <path id="ArialMT-65" d="M 2694 1069 
L 3275 997 
Q 3138 488 2766 206 
Q 2394 -75 1816 -75 
Q 1088 -75 661 373 
Q 234 822 234 1631 
Q 234 2469 665 2931 
Q 1097 3394 1784 3394 
Q 2450 3394 2872 2941 
Q 3294 2488 3294 1666 
Q 3294 1616 3291 1516 
L 816 1516 
Q 847 969 1125 678 
Q 1403 388 1819 388 
Q 2128 388 2347 550 
Q 2566 713 2694 1069 
z
M 847 1978 
L 2700 1978 
Q 2663 2397 2488 2606 
Q 2219 2931 1791 2931 
Q 1403 2931 1139 2672 
Q 875 2413 847 1978 
z
" transform="scale(0.015625)"/>
       <path id="ArialMT-76" d="M 1344 0 
L 81 3319 
L 675 3319 
L 1388 1331 
Q 1503 1009 1600 663 
Q 1675 925 1809 1294 
L 2547 3319 
L 3125 3319 
L 1869 0 
L 1344 0 
z
" transform="scale(0.015625)"/>
      </defs>
      <use xlink:href="#ArialMT-43"/>
      <use xlink:href="#ArialMT-6f" x="72.216797"/>
      <use xlink:href="#ArialMT-72" x="127.832031"/>
      <use xlink:href="#ArialMT-72" x="161.132812"/>
      <use xlink:href="#ArialMT-75" x="194.433594"/>
      <use xlink:href="#ArialMT-70" x="250.048828"/>
      <use xlink:href="#ArialMT-74" x="305.664062"/>
      <use xlink:href="#ArialMT-69" x="333.447266"/>
      <use xlink:href="#ArialMT-6f" x="355.664062"/>
      <use xlink:href="#ArialMT-6e" x="411.279297"/>
      <use xlink:href="#ArialMT-20" x="466.894531"/>
      <use xlink:href="#ArialMT-6c" x="494.677734"/>
      <use xlink:href="#ArialMT-65" x="516.894531"/>
      <use xlink:href="#ArialMT-76" x="572.509766"/>
      <use xlink:href="#ArialMT-65" x="622.509766"/>
      <use xlink:href="#ArialMT-6c" x="678.125"/>
     </g>
    </g>
   </g>
   <g id="matplotlib.axis_2">
    <g id="ytick_1">
     <g id="text_8">
      <!-- 0.0 -->
      <g style="fill: #262626" transform="translate(7.2 300.506815)scale(0.143 -0.143)">
       <defs>
        <path id="ArialMT-2e" d="M 581 0 
L 581 641 
L 1222 641 
L 1222 0 
L 581 0 
z
" transform="scale(0.015625)"/>
       </defs>
       <use xlink:href="#ArialMT-30"/>
       <use xlink:href="#ArialMT-2e" x="55.615234"/>
       <use xlink:href="#ArialMT-30" x="83.398438"/>
      </g>
     </g>
    </g>
    <g id="ytick_2">
     <g id="text_9">
      <!-- 0.1 -->
      <g style="fill: #262626" transform="translate(7.2 202.928051)scale(0.143 -0.143)">
       <use xlink:href="#ArialMT-30"/>
       <use xlink:href="#ArialMT-2e" x="55.615234"/>
       <use xlink:href="#ArialMT-31" x="83.398438"/>
      </g>
     </g>
    </g>
    <g id="ytick_3">
     <g id="text_10">
      <!-- 0.2 -->
      <g style="fill: #262626" transform="translate(7.2 105.349288)scale(0.143 -0.143)">
       <use xlink:href="#ArialMT-30"/>
       <use xlink:href="#ArialMT-2e" x="55.615234"/>
       <use xlink:href="#ArialMT-32" x="83.398438"/>
      </g>
     </g>
    </g>
   </g>
   <g id="LineCollection_1">
    <path d="M 42.954143 186.435959 
L 42.954143 179.576427 
" clip-path="url(#p812f0c1d42)" style="fill: none; stroke: #006ba4; stroke-width: 1.5"/>
    <path d="M 74.839857 244.732167 
L 74.839857 235.321599 
" clip-path="url(#p812f0c1d42)" style="fill: none; stroke: #006ba4; stroke-width: 1.5"/>
    <path d="M 106.725571 264.379189 
L 106.725571 258.279374 
" clip-path="url(#p812f0c1d42)" style="fill: none; stroke: #006ba4; stroke-width: 1.5"/>
    <path d="M 138.611286 267.308879 
L 138.611286 263.846804 
" clip-path="url(#p812f0c1d42)" style="fill: none; stroke: #006ba4; stroke-width: 1.5"/>
    <path d="M 170.497 247.490479 
L 170.497 236.385718 
" clip-path="url(#p812f0c1d42)" style="fill: none; stroke: #006ba4; stroke-width: 1.5"/>
    <path d="M 202.382714 218.401612 
L 202.382714 204.17632 
" clip-path="url(#p812f0c1d42)" style="fill: none; stroke: #006ba4; stroke-width: 1.5"/>
   </g>
   <g id="LineCollection_2">
    <path d="M 52.519857 284.033455 
L 52.519857 264.468101 
" clip-path="url(#p812f0c1d42)" style="fill: none; stroke: #ff800e; stroke-width: 1.5"/>
    <path d="M 84.405571 256.093643 
L 84.405571 235.759616 
" clip-path="url(#p812f0c1d42)" style="fill: none; stroke: #ff800e; stroke-width: 1.5"/>
    <path d="M 116.291286 235.762711 
L 116.291286 202.119813 
" clip-path="url(#p812f0c1d42)" style="fill: none; stroke: #ff800e; stroke-width: 1.5"/>
    <path d="M 148.177 203.731021 
L 148.177 169.736276 
" clip-path="url(#p812f0c1d42)" style="fill: none; stroke: #ff800e; stroke-width: 1.5"/>
    <path d="M 180.062714 173.003183 
L 180.062714 140.537171 
" clip-path="url(#p812f0c1d42)" style="fill: none; stroke: #ff800e; stroke-width: 1.5"/>
    <path d="M 211.948429 150.72975 
L 211.948429 118.443293 
" clip-path="url(#p812f0c1d42)" style="fill: none; stroke: #ff800e; stroke-width: 1.5"/>
   </g>
   <g id="LineCollection_3">
    <path d="M 62.085571 256.113906 
L 62.085571 251.078297 
" clip-path="url(#p812f0c1d42)" style="fill: none; stroke: #595959; stroke-width: 1.5"/>
    <path d="M 93.971286 179.530674 
L 93.971286 174.325047 
" clip-path="url(#p812f0c1d42)" style="fill: none; stroke: #595959; stroke-width: 1.5"/>
    <path d="M 125.857 145.169434 
L 125.857 139.52383 
" clip-path="url(#p812f0c1d42)" style="fill: none; stroke: #595959; stroke-width: 1.5"/>
    <path d="M 157.742714 107.628305 
L 157.742714 100.486555 
" clip-path="url(#p812f0c1d42)" style="fill: none; stroke: #595959; stroke-width: 1.5"/>
    <path d="M 189.628429 74.162623 
L 189.628429 65.377674 
" clip-path="url(#p812f0c1d42)" style="fill: none; stroke: #595959; stroke-width: 1.5"/>
    <path d="M 221.514143 48.313301 
L 221.514143 36.942545 
" clip-path="url(#p812f0c1d42)" style="fill: none; stroke: #595959; stroke-width: 1.5"/>
   </g>
   <g id="line2d_1">
    <path d="M 68.462714 296.388 
L 68.462714 24.588 
" clip-path="url(#p812f0c1d42)" style="fill: none; stroke: #ababab; stroke-opacity: 0.4; stroke-width: 1.5; stroke-linecap: round"/>
   </g>
   <g id="line2d_2">
    <path d="M 100.348429 296.388 
L 100.348429 24.588 
" clip-path="url(#p812f0c1d42)" style="fill: none; stroke: #ababab; stroke-opacity: 0.4; stroke-width: 1.5; stroke-linecap: round"/>
   </g>
   <g id="line2d_3">
    <path d="M 132.234143 296.388 
L 132.234143 24.588 
" clip-path="url(#p812f0c1d42)" style="fill: none; stroke: #ababab; stroke-opacity: 0.4; stroke-width: 1.5; stroke-linecap: round"/>
   </g>
   <g id="line2d_4">
    <path d="M 164.119857 296.388 
L 164.119857 24.588 
" clip-path="url(#p812f0c1d42)" style="fill: none; stroke: #ababab; stroke-opacity: 0.4; stroke-width: 1.5; stroke-linecap: round"/>
   </g>
   <g id="line2d_5">
    <path d="M 196.005571 296.388 
L 196.005571 24.588 
" clip-path="url(#p812f0c1d42)" style="fill: none; stroke: #ababab; stroke-opacity: 0.4; stroke-width: 1.5; stroke-linecap: round"/>
   </g>
   <g id="line2d_6">
    <defs>
     <path id="m5266e884da" d="M 0 3 
C 0.795609 3 1.55874 2.683901 2.12132 2.12132 
C 2.683901 1.55874 3 0.795609 3 0 
C 3 -0.795609 2.683901 -1.55874 2.12132 -2.12132 
C 1.55874 -2.683901 0.795609 -3 0 -3 
C -0.795609 -3 -1.55874 -2.683901 -2.12132 -2.12132 
C -2.683901 -1.55874 -3 -0.795609 -3 0 
C -3 0.795609 -2.683901 1.55874 -2.12132 2.12132 
C -1.55874 2.683901 -0.795609 3 0 3 
z
" style="stroke: #006ba4"/>
    </defs>
    <g clip-path="url(#p812f0c1d42)">
     <use xlink:href="#m5266e884da" x="42.954143" y="183.006193" style="fill: #006ba4; stroke: #006ba4"/>
     <use xlink:href="#m5266e884da" x="74.839857" y="240.026883" style="fill: #006ba4; stroke: #006ba4"/>
     <use xlink:href="#m5266e884da" x="106.725571" y="261.329282" style="fill: #006ba4; stroke: #006ba4"/>
     <use xlink:href="#m5266e884da" x="138.611286" y="265.577842" style="fill: #006ba4; stroke: #006ba4"/>
     <use xlink:href="#m5266e884da" x="170.497" y="241.938099" style="fill: #006ba4; stroke: #006ba4"/>
     <use xlink:href="#m5266e884da" x="202.382714" y="211.288966" style="fill: #006ba4; stroke: #006ba4"/>
    </g>
   </g>
   <g id="line2d_7">
    <defs>
     <path id="mfca0ab9a9a" d="M -3 3 
L 3 3 
L 3 -3 
L -3 -3 
z
" style="stroke: #ff800e; stroke-linejoin: miter"/>
    </defs>
    <g clip-path="url(#p812f0c1d42)">
     <use xlink:href="#mfca0ab9a9a" x="52.519857" y="274.250778" style="fill: #ff800e; stroke: #ff800e; stroke-linejoin: miter"/>
     <use xlink:href="#mfca0ab9a9a" x="84.405571" y="245.926629" style="fill: #ff800e; stroke: #ff800e; stroke-linejoin: miter"/>
     <use xlink:href="#mfca0ab9a9a" x="116.291286" y="218.941262" style="fill: #ff800e; stroke: #ff800e; stroke-linejoin: miter"/>
     <use xlink:href="#mfca0ab9a9a" x="148.177" y="186.733648" style="fill: #ff800e; stroke: #ff800e; stroke-linejoin: miter"/>
     <use xlink:href="#mfca0ab9a9a" x="180.062714" y="156.770177" style="fill: #ff800e; stroke: #ff800e; stroke-linejoin: miter"/>
     <use xlink:href="#mfca0ab9a9a" x="211.948429" y="134.586522" style="fill: #ff800e; stroke: #ff800e; stroke-linejoin: miter"/>
    </g>
   </g>
   <g id="line2d_8">
    <defs>
     <path id="m8caa190f64" d="M 0 4.242641 
L 4.242641 0 
L 0 -4.242641 
L -4.242641 0 
z
" style="stroke: #595959; stroke-linejoin: miter"/>
    </defs>
    <g clip-path="url(#p812f0c1d42)">
     <use xlink:href="#m8caa190f64" x="62.085571" y="253.596101" style="fill: #595959; stroke: #595959; stroke-linejoin: miter"/>
     <use xlink:href="#m8caa190f64" x="93.971286" y="176.92786" style="fill: #595959; stroke: #595959; stroke-linejoin: miter"/>
     <use xlink:href="#m8caa190f64" x="125.857" y="142.346632" style="fill: #595959; stroke: #595959; stroke-linejoin: miter"/>
     <use xlink:href="#m8caa190f64" x="157.742714" y="104.05743" style="fill: #595959; stroke: #595959; stroke-linejoin: miter"/>
     <use xlink:href="#m8caa190f64" x="189.628429" y="69.770149" style="fill: #595959; stroke: #595959; stroke-linejoin: miter"/>
     <use xlink:href="#m8caa190f64" x="221.514143" y="42.627923" style="fill: #595959; stroke: #595959; stroke-linejoin: miter"/>
    </g>
   </g>
   <g id="patch_3">
    <path d="M 36.577 296.388 
L 36.577 24.588 
" style="fill: none; stroke: #262626; stroke-width: 1.25; stroke-linejoin: miter; stroke-linecap: square"/>
   </g>
   <g id="patch_4">
    <path d="M 227.891286 296.388 
L 227.891286 24.588 
" style="fill: none; stroke: #262626; stroke-width: 1.25; stroke-linejoin: miter; stroke-linecap: square"/>
   </g>
   <g id="patch_5">
    <path d="M 36.577 296.388 
L 227.891286 296.388 
" style="fill: none; stroke: #262626; stroke-width: 1.25; stroke-linejoin: miter; stroke-linecap: square"/>
   </g>
   <g id="patch_6">
    <path d="M 36.577 24.588 
L 227.891286 24.588 
" style="fill: none; stroke: #262626; stroke-width: 1.25; stroke-linejoin: miter; stroke-linecap: square"/>
   </g>
   <g id="text_11">
    <!-- Expected calibration error $\downarrow$ -->
    <g style="fill: #262626" transform="translate(31.614143 18.588)scale(0.156 -0.156)">
     <defs>
      <path id="ArialMT-45" d="M 506 0 
L 506 4581 
L 3819 4581 
L 3819 4041 
L 1113 4041 
L 1113 2638 
L 3647 2638 
L 3647 2100 
L 1113 2100 
L 1113 541 
L 3925 541 
L 3925 0 
L 506 0 
z
" transform="scale(0.015625)"/>
      <path id="ArialMT-78" d="M 47 0 
L 1259 1725 
L 138 3319 
L 841 3319 
L 1350 2541 
Q 1494 2319 1581 2169 
Q 1719 2375 1834 2534 
L 2394 3319 
L 3066 3319 
L 1919 1756 
L 3153 0 
L 2463 0 
L 1781 1031 
L 1600 1309 
L 728 0 
L 47 0 
z
" transform="scale(0.015625)"/>
      <path id="ArialMT-63" d="M 2588 1216 
L 3141 1144 
Q 3050 572 2676 248 
Q 2303 -75 1759 -75 
Q 1078 -75 664 370 
Q 250 816 250 1647 
Q 250 2184 428 2587 
Q 606 2991 970 3192 
Q 1334 3394 1763 3394 
Q 2303 3394 2647 3120 
Q 2991 2847 3088 2344 
L 2541 2259 
Q 2463 2594 2264 2762 
Q 2066 2931 1784 2931 
Q 1359 2931 1093 2626 
Q 828 2322 828 1663 
Q 828 994 1084 691 
Q 1341 388 1753 388 
Q 2084 388 2306 591 
Q 2528 794 2588 1216 
z
" transform="scale(0.015625)"/>
      <path id="ArialMT-64" d="M 2575 0 
L 2575 419 
Q 2259 -75 1647 -75 
Q 1250 -75 917 144 
Q 584 363 401 755 
Q 219 1147 219 1656 
Q 219 2153 384 2558 
Q 550 2963 881 3178 
Q 1213 3394 1622 3394 
Q 1922 3394 2156 3267 
Q 2391 3141 2538 2938 
L 2538 4581 
L 3097 4581 
L 3097 0 
L 2575 0 
z
M 797 1656 
Q 797 1019 1065 703 
Q 1334 388 1700 388 
Q 2069 388 2326 689 
Q 2584 991 2584 1609 
Q 2584 2291 2321 2609 
Q 2059 2928 1675 2928 
Q 1300 2928 1048 2622 
Q 797 2316 797 1656 
z
" transform="scale(0.015625)"/>
      <path id="ArialMT-61" d="M 2588 409 
Q 2275 144 1986 34 
Q 1697 -75 1366 -75 
Q 819 -75 525 192 
Q 231 459 231 875 
Q 231 1119 342 1320 
Q 453 1522 633 1644 
Q 813 1766 1038 1828 
Q 1203 1872 1538 1913 
Q 2219 1994 2541 2106 
Q 2544 2222 2544 2253 
Q 2544 2597 2384 2738 
Q 2169 2928 1744 2928 
Q 1347 2928 1158 2789 
Q 969 2650 878 2297 
L 328 2372 
Q 403 2725 575 2942 
Q 747 3159 1072 3276 
Q 1397 3394 1825 3394 
Q 2250 3394 2515 3294 
Q 2781 3194 2906 3042 
Q 3031 2891 3081 2659 
Q 3109 2516 3109 2141 
L 3109 1391 
Q 3109 606 3145 398 
Q 3181 191 3288 0 
L 2700 0 
Q 2613 175 2588 409 
z
M 2541 1666 
Q 2234 1541 1622 1453 
Q 1275 1403 1131 1340 
Q 988 1278 909 1158 
Q 831 1038 831 891 
Q 831 666 1001 516 
Q 1172 366 1500 366 
Q 1825 366 2078 508 
Q 2331 650 2450 897 
Q 2541 1088 2541 1459 
L 2541 1666 
z
" transform="scale(0.015625)"/>
      <path id="ArialMT-62" d="M 941 0 
L 419 0 
L 419 4581 
L 981 4581 
L 981 2947 
Q 1338 3394 1891 3394 
Q 2197 3394 2470 3270 
Q 2744 3147 2920 2923 
Q 3097 2700 3197 2384 
Q 3297 2069 3297 1709 
Q 3297 856 2875 390 
Q 2453 -75 1863 -75 
Q 1275 -75 941 416 
L 941 0 
z
M 934 1684 
Q 934 1088 1097 822 
Q 1363 388 1816 388 
Q 2184 388 2453 708 
Q 2722 1028 2722 1663 
Q 2722 2313 2464 2622 
Q 2206 2931 1841 2931 
Q 1472 2931 1203 2611 
Q 934 2291 934 1684 
z
" transform="scale(0.015625)"/>
      <path id="DejaVuSans-2193" d="M 2822 -22 
L 2541 -22 
L 1309 1209 
L 1684 1584 
L 2416 853 
L 2416 4666 
L 2947 4666 
L 2947 853 
L 3672 1584 
L 4047 1209 
L 2822 -22 
z
" transform="scale(0.015625)"/>
     </defs>
     <use xlink:href="#ArialMT-45" transform="translate(0 0.09375)"/>
     <use xlink:href="#ArialMT-78" transform="translate(66.699219 0.09375)"/>
     <use xlink:href="#ArialMT-70" transform="translate(116.699219 0.09375)"/>
     <use xlink:href="#ArialMT-65" transform="translate(172.314453 0.09375)"/>
     <use xlink:href="#ArialMT-63" transform="translate(227.929688 0.09375)"/>
     <use xlink:href="#ArialMT-74" transform="translate(277.929688 0.09375)"/>
     <use xlink:href="#ArialMT-65" transform="translate(305.712891 0.09375)"/>
     <use xlink:href="#ArialMT-64" transform="translate(361.328125 0.09375)"/>
     <use xlink:href="#ArialMT-20" transform="translate(416.943359 0.09375)"/>
     <use xlink:href="#ArialMT-63" transform="translate(444.726562 0.09375)"/>
     <use xlink:href="#ArialMT-61" transform="translate(494.726562 0.09375)"/>
     <use xlink:href="#ArialMT-6c" transform="translate(550.341797 0.09375)"/>
     <use xlink:href="#ArialMT-69" transform="translate(572.558594 0.09375)"/>
     <use xlink:href="#ArialMT-62" transform="translate(594.775391 0.09375)"/>
     <use xlink:href="#ArialMT-72" transform="translate(650.390625 0.09375)"/>
     <use xlink:href="#ArialMT-61" transform="translate(683.691406 0.09375)"/>
     <use xlink:href="#ArialMT-74" transform="translate(739.306641 0.09375)"/>
     <use xlink:href="#ArialMT-69" transform="translate(767.089844 0.09375)"/>
     <use xlink:href="#ArialMT-6f" transform="translate(789.306641 0.09375)"/>
     <use xlink:href="#ArialMT-6e" transform="translate(844.921875 0.09375)"/>
     <use xlink:href="#ArialMT-20" transform="translate(900.537109 0.09375)"/>
     <use xlink:href="#ArialMT-65" transform="translate(928.320312 0.09375)"/>
     <use xlink:href="#ArialMT-72" transform="translate(983.935547 0.09375)"/>
     <use xlink:href="#ArialMT-72" transform="translate(1017.236328 0.09375)"/>
     <use xlink:href="#ArialMT-6f" transform="translate(1050.537109 0.09375)"/>
     <use xlink:href="#ArialMT-72" transform="translate(1106.152344 0.09375)"/>
     <use xlink:href="#ArialMT-20" transform="translate(1139.453125 0.09375)"/>
     <use xlink:href="#DejaVuSans-2193" transform="translate(1186.71875 0.09375)"/>
    </g>
   </g>
  </g>
  <g id="axes_2">
   <g id="patch_7">
    <path d="M 275.719857 296.388 
L 467.034143 296.388 
L 467.034143 24.588 
L 275.719857 24.588 
z
" style="fill: #ffffff"/>
   </g>
   <g id="matplotlib.axis_3">
    <g id="xtick_7">
     <g id="text_12">
      <!-- 0 -->
      <g style="fill: #262626" transform="translate(287.686644 316.123672)scale(0.143 -0.143)">
       <use xlink:href="#ArialMT-30"/>
      </g>
     </g>
    </g>
    <g id="xtick_8">
     <g id="text_13">
      <!-- 1 -->
      <g style="fill: #262626" transform="translate(319.572358 316.123672)scale(0.143 -0.143)">
       <use xlink:href="#ArialMT-31"/>
      </g>
     </g>
    </g>
    <g id="xtick_9">
     <g id="text_14">
      <!-- 2 -->
      <g style="fill: #262626" transform="translate(351.458073 316.123672)scale(0.143 -0.143)">
       <use xlink:href="#ArialMT-32"/>
      </g>
     </g>
    </g>
    <g id="xtick_10">
     <g id="text_15">
      <!-- 3 -->
      <g style="fill: #262626" transform="translate(383.343787 316.123672)scale(0.143 -0.143)">
       <use xlink:href="#ArialMT-33"/>
      </g>
     </g>
    </g>
    <g id="xtick_11">
     <g id="text_16">
      <!-- 4 -->
      <g style="fill: #262626" transform="translate(415.229501 316.123672)scale(0.143 -0.143)">
       <use xlink:href="#ArialMT-34"/>
      </g>
     </g>
    </g>
    <g id="xtick_12">
     <g id="text_17">
      <!-- 5 -->
      <g style="fill: #262626" transform="translate(447.115215 316.123672)scale(0.143 -0.143)">
       <use xlink:href="#ArialMT-35"/>
      </g>
     </g>
    </g>
    <g id="text_18">
     <!-- Corruption level -->
     <g style="fill: #262626" transform="translate(316.753844 334.322109)scale(0.156 -0.156)">
      <use xlink:href="#ArialMT-43"/>
      <use xlink:href="#ArialMT-6f" x="72.216797"/>
      <use xlink:href="#ArialMT-72" x="127.832031"/>
      <use xlink:href="#ArialMT-72" x="161.132812"/>
      <use xlink:href="#ArialMT-75" x="194.433594"/>
      <use xlink:href="#ArialMT-70" x="250.048828"/>
      <use xlink:href="#ArialMT-74" x="305.664062"/>
      <use xlink:href="#ArialMT-69" x="333.447266"/>
      <use xlink:href="#ArialMT-6f" x="355.664062"/>
      <use xlink:href="#ArialMT-6e" x="411.279297"/>
      <use xlink:href="#ArialMT-20" x="466.894531"/>
      <use xlink:href="#ArialMT-6c" x="494.677734"/>
      <use xlink:href="#ArialMT-65" x="516.894531"/>
      <use xlink:href="#ArialMT-76" x="572.509766"/>
      <use xlink:href="#ArialMT-65" x="622.509766"/>
      <use xlink:href="#ArialMT-6c" x="678.125"/>
     </g>
    </g>
   </g>
   <g id="matplotlib.axis_4">
    <g id="ytick_4">
     <g id="text_19">
      <!-- 2.0 -->
      <g style="fill: #262626" transform="translate(246.342857 252.835905)scale(0.143 -0.143)">
       <use xlink:href="#ArialMT-32"/>
       <use xlink:href="#ArialMT-2e" x="55.615234"/>
       <use xlink:href="#ArialMT-30" x="83.398438"/>
      </g>
     </g>
    </g>
    <g id="ytick_5">
     <g id="text_20">
      <!-- 3.0 -->
      <g style="fill: #262626" transform="translate(246.342857 195.598572)scale(0.143 -0.143)">
       <use xlink:href="#ArialMT-33"/>
       <use xlink:href="#ArialMT-2e" x="55.615234"/>
       <use xlink:href="#ArialMT-30" x="83.398438"/>
      </g>
     </g>
    </g>
    <g id="ytick_6">
     <g id="text_21">
      <!-- 4.0 -->
      <g style="fill: #262626" transform="translate(246.342857 138.361239)scale(0.143 -0.143)">
       <use xlink:href="#ArialMT-34"/>
       <use xlink:href="#ArialMT-2e" x="55.615234"/>
       <use xlink:href="#ArialMT-30" x="83.398438"/>
      </g>
     </g>
    </g>
    <g id="ytick_7">
     <g id="text_22">
      <!-- 5.0 -->
      <g style="fill: #262626" transform="translate(246.342857 81.123906)scale(0.143 -0.143)">
       <use xlink:href="#ArialMT-35"/>
       <use xlink:href="#ArialMT-2e" x="55.615234"/>
       <use xlink:href="#ArialMT-30" x="83.398438"/>
      </g>
     </g>
    </g>
   </g>
   <g id="LineCollection_4">
    <path d="M 282.097 283.411414 
L 282.097 282.459714 
" clip-path="url(#p24008545ec)" style="fill: none; stroke: #006ba4; stroke-width: 1.5"/>
    <path d="M 313.982714 218.572128 
L 313.982714 215.811309 
" clip-path="url(#p24008545ec)" style="fill: none; stroke: #006ba4; stroke-width: 1.5"/>
    <path d="M 345.868429 198.568034 
L 345.868429 195.463705 
" clip-path="url(#p24008545ec)" style="fill: none; stroke: #006ba4; stroke-width: 1.5"/>
    <path d="M 377.754143 172.369404 
L 377.754143 168.872473 
" clip-path="url(#p24008545ec)" style="fill: none; stroke: #006ba4; stroke-width: 1.5"/>
    <path d="M 409.639857 142.368282 
L 409.639857 138.302465 
" clip-path="url(#p24008545ec)" style="fill: none; stroke: #006ba4; stroke-width: 1.5"/>
    <path d="M 441.525571 115.015573 
L 441.525571 110.342795 
" clip-path="url(#p24008545ec)" style="fill: none; stroke: #006ba4; stroke-width: 1.5"/>
   </g>
   <g id="LineCollection_5">
    <path d="M 291.662714 284.033455 
L 291.662714 281.983688 
" clip-path="url(#p24008545ec)" style="fill: none; stroke: #ff800e; stroke-width: 1.5"/>
    <path d="M 323.548429 212.439203 
L 323.548429 206.199113 
" clip-path="url(#p24008545ec)" style="fill: none; stroke: #ff800e; stroke-width: 1.5"/>
    <path d="M 355.434143 188.602345 
L 355.434143 180.933212 
" clip-path="url(#p24008545ec)" style="fill: none; stroke: #ff800e; stroke-width: 1.5"/>
    <path d="M 387.319857 158.315899 
L 387.319857 148.754405 
" clip-path="url(#p24008545ec)" style="fill: none; stroke: #ff800e; stroke-width: 1.5"/>
    <path d="M 419.205571 125.012066 
L 419.205571 113.554379 
" clip-path="url(#p24008545ec)" style="fill: none; stroke: #ff800e; stroke-width: 1.5"/>
    <path d="M 451.091286 95.396273 
L 451.091286 82.160154 
" clip-path="url(#p24008545ec)" style="fill: none; stroke: #ff800e; stroke-width: 1.5"/>
   </g>
   <g id="LineCollection_6">
    <path d="M 301.228429 274.208575 
L 301.228429 272.962551 
" clip-path="url(#p24008545ec)" style="fill: none; stroke: #595959; stroke-width: 1.5"/>
    <path d="M 333.114143 186.465259 
L 333.114143 183.785665 
" clip-path="url(#p24008545ec)" style="fill: none; stroke: #595959; stroke-width: 1.5"/>
    <path d="M 364.999857 157.190129 
L 364.999857 153.740236 
" clip-path="url(#p24008545ec)" style="fill: none; stroke: #595959; stroke-width: 1.5"/>
    <path d="M 396.885571 119.77505 
L 396.885571 115.361096 
" clip-path="url(#p24008545ec)" style="fill: none; stroke: #595959; stroke-width: 1.5"/>
    <path d="M 428.771286 79.985278 
L 428.771286 74.233733 
" clip-path="url(#p24008545ec)" style="fill: none; stroke: #595959; stroke-width: 1.5"/>
    <path d="M 460.657 44.829154 
L 460.657 36.942545 
" clip-path="url(#p24008545ec)" style="fill: none; stroke: #595959; stroke-width: 1.5"/>
   </g>
   <g id="line2d_9">
    <path d="M 307.605571 296.388 
L 307.605571 24.588 
" clip-path="url(#p24008545ec)" style="fill: none; stroke: #ababab; stroke-opacity: 0.4; stroke-width: 1.5; stroke-linecap: round"/>
   </g>
   <g id="line2d_10">
    <path d="M 339.491286 296.388 
L 339.491286 24.588 
" clip-path="url(#p24008545ec)" style="fill: none; stroke: #ababab; stroke-opacity: 0.4; stroke-width: 1.5; stroke-linecap: round"/>
   </g>
   <g id="line2d_11">
    <path d="M 371.377 296.388 
L 371.377 24.588 
" clip-path="url(#p24008545ec)" style="fill: none; stroke: #ababab; stroke-opacity: 0.4; stroke-width: 1.5; stroke-linecap: round"/>
   </g>
   <g id="line2d_12">
    <path d="M 403.262714 296.388 
L 403.262714 24.588 
" clip-path="url(#p24008545ec)" style="fill: none; stroke: #ababab; stroke-opacity: 0.4; stroke-width: 1.5; stroke-linecap: round"/>
   </g>
   <g id="line2d_13">
    <path d="M 435.148429 296.388 
L 435.148429 24.588 
" clip-path="url(#p24008545ec)" style="fill: none; stroke: #ababab; stroke-opacity: 0.4; stroke-width: 1.5; stroke-linecap: round"/>
   </g>
   <g id="line2d_14">
    <g clip-path="url(#p24008545ec)">
     <use xlink:href="#m5266e884da" x="282.097" y="282.935564" style="fill: #006ba4; stroke: #006ba4"/>
     <use xlink:href="#m5266e884da" x="313.982714" y="217.191719" style="fill: #006ba4; stroke: #006ba4"/>
     <use xlink:href="#m5266e884da" x="345.868429" y="197.015869" style="fill: #006ba4; stroke: #006ba4"/>
     <use xlink:href="#m5266e884da" x="377.754143" y="170.620939" style="fill: #006ba4; stroke: #006ba4"/>
     <use xlink:href="#m5266e884da" x="409.639857" y="140.335373" style="fill: #006ba4; stroke: #006ba4"/>
     <use xlink:href="#m5266e884da" x="441.525571" y="112.679184" style="fill: #006ba4; stroke: #006ba4"/>
    </g>
   </g>
   <g id="line2d_15">
    <g clip-path="url(#p24008545ec)">
     <use xlink:href="#mfca0ab9a9a" x="291.662714" y="283.008571" style="fill: #ff800e; stroke: #ff800e; stroke-linejoin: miter"/>
     <use xlink:href="#mfca0ab9a9a" x="323.548429" y="209.319158" style="fill: #ff800e; stroke: #ff800e; stroke-linejoin: miter"/>
     <use xlink:href="#mfca0ab9a9a" x="355.434143" y="184.767779" style="fill: #ff800e; stroke: #ff800e; stroke-linejoin: miter"/>
     <use xlink:href="#mfca0ab9a9a" x="387.319857" y="153.535152" style="fill: #ff800e; stroke: #ff800e; stroke-linejoin: miter"/>
     <use xlink:href="#mfca0ab9a9a" x="419.205571" y="119.283223" style="fill: #ff800e; stroke: #ff800e; stroke-linejoin: miter"/>
     <use xlink:href="#mfca0ab9a9a" x="451.091286" y="88.778214" style="fill: #ff800e; stroke: #ff800e; stroke-linejoin: miter"/>
    </g>
   </g>
   <g id="line2d_16">
    <g clip-path="url(#p24008545ec)">
     <use xlink:href="#m8caa190f64" x="301.228429" y="273.585563" style="fill: #595959; stroke: #595959; stroke-linejoin: miter"/>
     <use xlink:href="#m8caa190f64" x="333.114143" y="185.125462" style="fill: #595959; stroke: #595959; stroke-linejoin: miter"/>
     <use xlink:href="#m8caa190f64" x="364.999857" y="155.465182" style="fill: #595959; stroke: #595959; stroke-linejoin: miter"/>
     <use xlink:href="#m8caa190f64" x="396.885571" y="117.568073" style="fill: #595959; stroke: #595959; stroke-linejoin: miter"/>
     <use xlink:href="#m8caa190f64" x="428.771286" y="77.109505" style="fill: #595959; stroke: #595959; stroke-linejoin: miter"/>
     <use xlink:href="#m8caa190f64" x="460.657" y="40.88585" style="fill: #595959; stroke: #595959; stroke-linejoin: miter"/>
    </g>
   </g>
   <g id="patch_8">
    <path d="M 275.719857 296.388 
L 275.719857 24.588 
" style="fill: none; stroke: #262626; stroke-width: 1.25; stroke-linejoin: miter; stroke-linecap: square"/>
   </g>
   <g id="patch_9">
    <path d="M 467.034143 296.388 
L 467.034143 24.588 
" style="fill: none; stroke: #262626; stroke-width: 1.25; stroke-linejoin: miter; stroke-linecap: square"/>
   </g>
   <g id="patch_10">
    <path d="M 275.719857 296.388 
L 467.034143 296.388 
" style="fill: none; stroke: #262626; stroke-width: 1.25; stroke-linejoin: miter; stroke-linecap: square"/>
   </g>
   <g id="patch_11">
    <path d="M 275.719857 24.588 
L 467.034143 24.588 
" style="fill: none; stroke: #262626; stroke-width: 1.25; stroke-linejoin: miter; stroke-linecap: square"/>
   </g>
   <g id="text_23">
    <!-- Negative log-likelihood $\downarrow$ -->
    <g style="fill: #262626" transform="translate(281.131 18.588)scale(0.156 -0.156)">
     <defs>
      <path id="ArialMT-4e" d="M 488 0 
L 488 4581 
L 1109 4581 
L 3516 984 
L 3516 4581 
L 4097 4581 
L 4097 0 
L 3475 0 
L 1069 3600 
L 1069 0 
L 488 0 
z
" transform="scale(0.015625)"/>
      <path id="ArialMT-67" d="M 319 -275 
L 866 -356 
Q 900 -609 1056 -725 
Q 1266 -881 1628 -881 
Q 2019 -881 2231 -725 
Q 2444 -569 2519 -288 
Q 2563 -116 2559 434 
Q 2191 0 1641 0 
Q 956 0 581 494 
Q 206 988 206 1678 
Q 206 2153 378 2554 
Q 550 2956 876 3175 
Q 1203 3394 1644 3394 
Q 2231 3394 2613 2919 
L 2613 3319 
L 3131 3319 
L 3131 450 
Q 3131 -325 2973 -648 
Q 2816 -972 2473 -1159 
Q 2131 -1347 1631 -1347 
Q 1038 -1347 672 -1080 
Q 306 -813 319 -275 
z
M 784 1719 
Q 784 1066 1043 766 
Q 1303 466 1694 466 
Q 2081 466 2343 764 
Q 2606 1063 2606 1700 
Q 2606 2309 2336 2618 
Q 2066 2928 1684 2928 
Q 1309 2928 1046 2623 
Q 784 2319 784 1719 
z
" transform="scale(0.015625)"/>
      <path id="ArialMT-2d" d="M 203 1375 
L 203 1941 
L 1931 1941 
L 1931 1375 
L 203 1375 
z
" transform="scale(0.015625)"/>
      <path id="ArialMT-6b" d="M 425 0 
L 425 4581 
L 988 4581 
L 988 1969 
L 2319 3319 
L 3047 3319 
L 1778 2088 
L 3175 0 
L 2481 0 
L 1384 1697 
L 988 1316 
L 988 0 
L 425 0 
z
" transform="scale(0.015625)"/>
      <path id="ArialMT-68" d="M 422 0 
L 422 4581 
L 984 4581 
L 984 2938 
Q 1378 3394 1978 3394 
Q 2347 3394 2619 3248 
Q 2891 3103 3008 2847 
Q 3125 2591 3125 2103 
L 3125 0 
L 2563 0 
L 2563 2103 
Q 2563 2525 2380 2717 
Q 2197 2909 1863 2909 
Q 1613 2909 1392 2779 
Q 1172 2650 1078 2428 
Q 984 2206 984 1816 
L 984 0 
L 422 0 
z
" transform="scale(0.015625)"/>
     </defs>
     <use xlink:href="#ArialMT-4e" transform="translate(0 0.09375)"/>
     <use xlink:href="#ArialMT-65" transform="translate(72.216797 0.09375)"/>
     <use xlink:href="#ArialMT-67" transform="translate(127.832031 0.09375)"/>
     <use xlink:href="#ArialMT-61" transform="translate(183.447266 0.09375)"/>
     <use xlink:href="#ArialMT-74" transform="translate(239.0625 0.09375)"/>
     <use xlink:href="#ArialMT-69" transform="translate(266.845703 0.09375)"/>
     <use xlink:href="#ArialMT-76" transform="translate(289.0625 0.09375)"/>
     <use xlink:href="#ArialMT-65" transform="translate(339.0625 0.09375)"/>
     <use xlink:href="#ArialMT-20" transform="translate(394.677734 0.09375)"/>
     <use xlink:href="#ArialMT-6c" transform="translate(422.460938 0.09375)"/>
     <use xlink:href="#ArialMT-6f" transform="translate(444.677734 0.09375)"/>
     <use xlink:href="#ArialMT-67" transform="translate(500.292969 0.09375)"/>
     <use xlink:href="#ArialMT-2d" transform="translate(555.908203 0.09375)"/>
     <use xlink:href="#ArialMT-6c" transform="translate(589.208984 0.09375)"/>
     <use xlink:href="#ArialMT-69" transform="translate(611.425781 0.09375)"/>
     <use xlink:href="#ArialMT-6b" transform="translate(633.642578 0.09375)"/>
     <use xlink:href="#ArialMT-65" transform="translate(683.642578 0.09375)"/>
     <use xlink:href="#ArialMT-6c" transform="translate(739.257812 0.09375)"/>
     <use xlink:href="#ArialMT-69" transform="translate(761.474609 0.09375)"/>
     <use xlink:href="#ArialMT-68" transform="translate(783.691406 0.09375)"/>
     <use xlink:href="#ArialMT-6f" transform="translate(839.306641 0.09375)"/>
     <use xlink:href="#ArialMT-6f" transform="translate(894.921875 0.09375)"/>
     <use xlink:href="#ArialMT-64" transform="translate(950.537109 0.09375)"/>
     <use xlink:href="#ArialMT-20" transform="translate(1006.152344 0.09375)"/>
     <use xlink:href="#DejaVuSans-2193" transform="translate(1053.417969 0.09375)"/>
    </g>
   </g>
  </g>
  <g id="axes_3">
   <g id="patch_12">
    <path d="M 514.862714 296.388 
L 706.177 296.388 
L 706.177 24.588 
L 514.862714 24.588 
z
" style="fill: #ffffff"/>
   </g>
   <g id="matplotlib.axis_5">
    <g id="xtick_13">
     <g id="text_24">
      <!-- 0 -->
      <g style="fill: #262626" transform="translate(526.829501 316.123672)scale(0.143 -0.143)">
       <use xlink:href="#ArialMT-30"/>
      </g>
     </g>
    </g>
    <g id="xtick_14">
     <g id="text_25">
      <!-- 1 -->
      <g style="fill: #262626" transform="translate(558.715215 316.123672)scale(0.143 -0.143)">
       <use xlink:href="#ArialMT-31"/>
      </g>
     </g>
    </g>
    <g id="xtick_15">
     <g id="text_26">
      <!-- 2 -->
      <g style="fill: #262626" transform="translate(590.60093 316.123672)scale(0.143 -0.143)">
       <use xlink:href="#ArialMT-32"/>
      </g>
     </g>
    </g>
    <g id="xtick_16">
     <g id="text_27">
      <!-- 3 -->
      <g style="fill: #262626" transform="translate(622.486644 316.123672)scale(0.143 -0.143)">
       <use xlink:href="#ArialMT-33"/>
      </g>
     </g>
    </g>
    <g id="xtick_17">
     <g id="text_28">
      <!-- 4 -->
      <g style="fill: #262626" transform="translate(654.372358 316.123672)scale(0.143 -0.143)">
       <use xlink:href="#ArialMT-34"/>
      </g>
     </g>
    </g>
    <g id="xtick_18">
     <g id="text_29">
      <!-- 5 -->
      <g style="fill: #262626" transform="translate(686.258073 316.123672)scale(0.143 -0.143)">
       <use xlink:href="#ArialMT-35"/>
      </g>
     </g>
    </g>
    <g id="text_30">
     <!-- Corruption level -->
     <g style="fill: #262626" transform="translate(555.896701 334.322109)scale(0.156 -0.156)">
      <use xlink:href="#ArialMT-43"/>
      <use xlink:href="#ArialMT-6f" x="72.216797"/>
      <use xlink:href="#ArialMT-72" x="127.832031"/>
      <use xlink:href="#ArialMT-72" x="161.132812"/>
      <use xlink:href="#ArialMT-75" x="194.433594"/>
      <use xlink:href="#ArialMT-70" x="250.048828"/>
      <use xlink:href="#ArialMT-74" x="305.664062"/>
      <use xlink:href="#ArialMT-69" x="333.447266"/>
      <use xlink:href="#ArialMT-6f" x="355.664062"/>
      <use xlink:href="#ArialMT-6e" x="411.279297"/>
      <use xlink:href="#ArialMT-20" x="466.894531"/>
      <use xlink:href="#ArialMT-6c" x="494.677734"/>
      <use xlink:href="#ArialMT-65" x="516.894531"/>
      <use xlink:href="#ArialMT-76" x="572.509766"/>
      <use xlink:href="#ArialMT-65" x="622.509766"/>
      <use xlink:href="#ArialMT-6c" x="678.125"/>
     </g>
    </g>
   </g>
   <g id="matplotlib.axis_6">
    <g id="ytick_8">
     <g id="text_31">
      <!-- 30 -->
      <g style="fill: #262626" transform="translate(489.458433 298.749696)scale(0.143 -0.143)">
       <use xlink:href="#ArialMT-33"/>
       <use xlink:href="#ArialMT-30" x="55.615234"/>
      </g>
     </g>
    </g>
    <g id="ytick_9">
     <g id="text_32">
      <!-- 40 -->
      <g style="fill: #262626" transform="translate(489.458433 253.376702)scale(0.143 -0.143)">
       <use xlink:href="#ArialMT-34"/>
       <use xlink:href="#ArialMT-30" x="55.615234"/>
      </g>
     </g>
    </g>
    <g id="ytick_10">
     <g id="text_33">
      <!-- 50 -->
      <g style="fill: #262626" transform="translate(489.458433 208.003708)scale(0.143 -0.143)">
       <use xlink:href="#ArialMT-35"/>
       <use xlink:href="#ArialMT-30" x="55.615234"/>
      </g>
     </g>
    </g>
    <g id="ytick_11">
     <g id="text_34">
      <!-- 60 -->
      <g style="fill: #262626" transform="translate(489.458433 162.630714)scale(0.143 -0.143)">
       <defs>
        <path id="ArialMT-36" d="M 3184 3459 
L 2625 3416 
Q 2550 3747 2413 3897 
Q 2184 4138 1850 4138 
Q 1581 4138 1378 3988 
Q 1113 3794 959 3422 
Q 806 3050 800 2363 
Q 1003 2672 1297 2822 
Q 1591 2972 1913 2972 
Q 2475 2972 2870 2558 
Q 3266 2144 3266 1488 
Q 3266 1056 3080 686 
Q 2894 316 2569 119 
Q 2244 -78 1831 -78 
Q 1128 -78 684 439 
Q 241 956 241 2144 
Q 241 3472 731 4075 
Q 1159 4600 1884 4600 
Q 2425 4600 2770 4297 
Q 3116 3994 3184 3459 
z
M 888 1484 
Q 888 1194 1011 928 
Q 1134 663 1356 523 
Q 1578 384 1822 384 
Q 2178 384 2434 671 
Q 2691 959 2691 1453 
Q 2691 1928 2437 2201 
Q 2184 2475 1800 2475 
Q 1419 2475 1153 2201 
Q 888 1928 888 1484 
z
" transform="scale(0.015625)"/>
       </defs>
       <use xlink:href="#ArialMT-36"/>
       <use xlink:href="#ArialMT-30" x="55.615234"/>
      </g>
     </g>
    </g>
    <g id="ytick_12">
     <g id="text_35">
      <!-- 70 -->
      <g style="fill: #262626" transform="translate(489.458433 117.25772)scale(0.143 -0.143)">
       <defs>
        <path id="ArialMT-37" d="M 303 3981 
L 303 4522 
L 3269 4522 
L 3269 4084 
Q 2831 3619 2401 2847 
Q 1972 2075 1738 1259 
Q 1569 684 1522 0 
L 944 0 
Q 953 541 1156 1306 
Q 1359 2072 1739 2783 
Q 2119 3494 2547 3981 
L 303 3981 
z
" transform="scale(0.015625)"/>
       </defs>
       <use xlink:href="#ArialMT-37"/>
       <use xlink:href="#ArialMT-30" x="55.615234"/>
      </g>
     </g>
    </g>
    <g id="ytick_13">
     <g id="text_36">
      <!-- 80 -->
      <g style="fill: #262626" transform="translate(489.458433 71.884727)scale(0.143 -0.143)">
       <defs>
        <path id="ArialMT-38" d="M 1131 2484 
Q 781 2613 612 2850 
Q 444 3088 444 3419 
Q 444 3919 803 4259 
Q 1163 4600 1759 4600 
Q 2359 4600 2725 4251 
Q 3091 3903 3091 3403 
Q 3091 3084 2923 2848 
Q 2756 2613 2416 2484 
Q 2838 2347 3058 2040 
Q 3278 1734 3278 1309 
Q 3278 722 2862 322 
Q 2447 -78 1769 -78 
Q 1091 -78 675 323 
Q 259 725 259 1325 
Q 259 1772 486 2073 
Q 713 2375 1131 2484 
z
M 1019 3438 
Q 1019 3113 1228 2906 
Q 1438 2700 1772 2700 
Q 2097 2700 2305 2904 
Q 2513 3109 2513 3406 
Q 2513 3716 2298 3927 
Q 2084 4138 1766 4138 
Q 1444 4138 1231 3931 
Q 1019 3725 1019 3438 
z
M 838 1322 
Q 838 1081 952 856 
Q 1066 631 1291 507 
Q 1516 384 1775 384 
Q 2178 384 2440 643 
Q 2703 903 2703 1303 
Q 2703 1709 2433 1975 
Q 2163 2241 1756 2241 
Q 1359 2241 1098 1978 
Q 838 1716 838 1322 
z
" transform="scale(0.015625)"/>
       </defs>
       <use xlink:href="#ArialMT-38"/>
       <use xlink:href="#ArialMT-30" x="55.615234"/>
      </g>
     </g>
    </g>
   </g>
   <g id="LineCollection_7">
    <path d="M 521.239857 284.033455 
L 521.239857 281.886806 
" clip-path="url(#p12393ff295)" style="fill: none; stroke: #006ba4; stroke-width: 1.5"/>
    <path d="M 553.125571 174.12685 
L 553.125571 169.915603 
" clip-path="url(#p12393ff295)" style="fill: none; stroke: #006ba4; stroke-width: 1.5"/>
    <path d="M 585.011286 145.820747 
L 585.011286 141.45924 
" clip-path="url(#p12393ff295)" style="fill: none; stroke: #006ba4; stroke-width: 1.5"/>
    <path d="M 616.897 113.325659 
L 616.897 109.363517 
" clip-path="url(#p12393ff295)" style="fill: none; stroke: #006ba4; stroke-width: 1.5"/>
    <path d="M 648.782714 81.852325 
L 648.782714 78.49726 
" clip-path="url(#p12393ff295)" style="fill: none; stroke: #006ba4; stroke-width: 1.5"/>
    <path d="M 680.668429 58.035327 
L 680.668429 55.264035 
" clip-path="url(#p12393ff295)" style="fill: none; stroke: #006ba4; stroke-width: 1.5"/>
   </g>
   <g id="LineCollection_8">
    <path d="M 530.805571 279.449608 
L 530.805571 276.902396 
" clip-path="url(#p12393ff295)" style="fill: none; stroke: #ff800e; stroke-width: 1.5"/>
    <path d="M 562.691286 165.922668 
L 562.691286 161.211023 
" clip-path="url(#p12393ff295)" style="fill: none; stroke: #ff800e; stroke-width: 1.5"/>
    <path d="M 594.577 136.855012 
L 594.577 132.281104 
" clip-path="url(#p12393ff295)" style="fill: none; stroke: #ff800e; stroke-width: 1.5"/>
    <path d="M 626.462714 104.172511 
L 626.462714 99.951968 
" clip-path="url(#p12393ff295)" style="fill: none; stroke: #ff800e; stroke-width: 1.5"/>
    <path d="M 658.348429 74.085593 
L 658.348429 70.687866 
" clip-path="url(#p12393ff295)" style="fill: none; stroke: #ff800e; stroke-width: 1.5"/>
    <path d="M 690.234143 51.765587 
L 690.234143 48.667929 
" clip-path="url(#p12393ff295)" style="fill: none; stroke: #ff800e; stroke-width: 1.5"/>
   </g>
   <g id="LineCollection_9">
    <path d="M 540.371286 270.494475 
L 540.371286 268.239046 
" clip-path="url(#p12393ff295)" style="fill: none; stroke: #595959; stroke-width: 1.5"/>
    <path d="M 572.257 145.664461 
L 572.257 142.65576 
" clip-path="url(#p12393ff295)" style="fill: none; stroke: #595959; stroke-width: 1.5"/>
    <path d="M 604.142714 116.381975 
L 604.142714 113.412628 
" clip-path="url(#p12393ff295)" style="fill: none; stroke: #595959; stroke-width: 1.5"/>
    <path d="M 636.028429 84.975924 
L 636.028429 82.337296 
" clip-path="url(#p12393ff295)" style="fill: none; stroke: #595959; stroke-width: 1.5"/>
    <path d="M 667.914143 58.378457 
L 667.914143 56.296794 
" clip-path="url(#p12393ff295)" style="fill: none; stroke: #595959; stroke-width: 1.5"/>
    <path d="M 699.799857 38.574554 
L 699.799857 36.942545 
" clip-path="url(#p12393ff295)" style="fill: none; stroke: #595959; stroke-width: 1.5"/>
   </g>
   <g id="line2d_17">
    <path d="M 546.748429 296.388 
L 546.748429 24.588 
" clip-path="url(#p12393ff295)" style="fill: none; stroke: #ababab; stroke-opacity: 0.4; stroke-width: 1.5; stroke-linecap: round"/>
   </g>
   <g id="line2d_18">
    <path d="M 578.634143 296.388 
L 578.634143 24.588 
" clip-path="url(#p12393ff295)" style="fill: none; stroke: #ababab; stroke-opacity: 0.4; stroke-width: 1.5; stroke-linecap: round"/>
   </g>
   <g id="line2d_19">
    <path d="M 610.519857 296.388 
L 610.519857 24.588 
" clip-path="url(#p12393ff295)" style="fill: none; stroke: #ababab; stroke-opacity: 0.4; stroke-width: 1.5; stroke-linecap: round"/>
   </g>
   <g id="line2d_20">
    <path d="M 642.405571 296.388 
L 642.405571 24.588 
" clip-path="url(#p12393ff295)" style="fill: none; stroke: #ababab; stroke-opacity: 0.4; stroke-width: 1.5; stroke-linecap: round"/>
   </g>
   <g id="line2d_21">
    <path d="M 674.291286 296.388 
L 674.291286 24.588 
" clip-path="url(#p12393ff295)" style="fill: none; stroke: #ababab; stroke-opacity: 0.4; stroke-width: 1.5; stroke-linecap: round"/>
   </g>
   <g id="line2d_22">
    <g clip-path="url(#p12393ff295)">
     <use xlink:href="#m5266e884da" x="521.239857" y="282.96013" style="fill: #006ba4; stroke: #006ba4"/>
     <use xlink:href="#m5266e884da" x="553.125571" y="172.021227" style="fill: #006ba4; stroke: #006ba4"/>
     <use xlink:href="#m5266e884da" x="585.011286" y="143.639993" style="fill: #006ba4; stroke: #006ba4"/>
     <use xlink:href="#m5266e884da" x="616.897" y="111.344588" style="fill: #006ba4; stroke: #006ba4"/>
     <use xlink:href="#m5266e884da" x="648.782714" y="80.174793" style="fill: #006ba4; stroke: #006ba4"/>
     <use xlink:href="#m5266e884da" x="680.668429" y="56.649681" style="fill: #006ba4; stroke: #006ba4"/>
    </g>
   </g>
   <g id="line2d_23">
    <g clip-path="url(#p12393ff295)">
     <use xlink:href="#mfca0ab9a9a" x="530.805571" y="278.176002" style="fill: #ff800e; stroke: #ff800e; stroke-linejoin: miter"/>
     <use xlink:href="#mfca0ab9a9a" x="562.691286" y="163.566846" style="fill: #ff800e; stroke: #ff800e; stroke-linejoin: miter"/>
     <use xlink:href="#mfca0ab9a9a" x="594.577" y="134.568058" style="fill: #ff800e; stroke: #ff800e; stroke-linejoin: miter"/>
     <use xlink:href="#mfca0ab9a9a" x="626.462714" y="102.06224" style="fill: #ff800e; stroke: #ff800e; stroke-linejoin: miter"/>
     <use xlink:href="#mfca0ab9a9a" x="658.348429" y="72.386729" style="fill: #ff800e; stroke: #ff800e; stroke-linejoin: miter"/>
     <use xlink:href="#mfca0ab9a9a" x="690.234143" y="50.216758" style="fill: #ff800e; stroke: #ff800e; stroke-linejoin: miter"/>
    </g>
   </g>
   <g id="line2d_24">
    <g clip-path="url(#p12393ff295)">
     <use xlink:href="#m8caa190f64" x="540.371286" y="269.366761" style="fill: #595959; stroke: #595959; stroke-linejoin: miter"/>
     <use xlink:href="#m8caa190f64" x="572.257" y="144.160111" style="fill: #595959; stroke: #595959; stroke-linejoin: miter"/>
     <use xlink:href="#m8caa190f64" x="604.142714" y="114.897301" style="fill: #595959; stroke: #595959; stroke-linejoin: miter"/>
     <use xlink:href="#m8caa190f64" x="636.028429" y="83.65661" style="fill: #595959; stroke: #595959; stroke-linejoin: miter"/>
     <use xlink:href="#m8caa190f64" x="667.914143" y="57.337625" style="fill: #595959; stroke: #595959; stroke-linejoin: miter"/>
     <use xlink:href="#m8caa190f64" x="699.799857" y="37.75855" style="fill: #595959; stroke: #595959; stroke-linejoin: miter"/>
    </g>
   </g>
   <g id="patch_13">
    <path d="M 514.862714 296.388 
L 514.862714 24.588 
" style="fill: none; stroke: #262626; stroke-width: 1.25; stroke-linejoin: miter; stroke-linecap: square"/>
   </g>
   <g id="patch_14">
    <path d="M 706.177 296.388 
L 706.177 24.588 
" style="fill: none; stroke: #262626; stroke-width: 1.25; stroke-linejoin: miter; stroke-linecap: square"/>
   </g>
   <g id="patch_15">
    <path d="M 514.862714 296.388 
L 706.177 296.388 
" style="fill: none; stroke: #262626; stroke-width: 1.25; stroke-linejoin: miter; stroke-linecap: square"/>
   </g>
   <g id="patch_16">
    <path d="M 514.862714 24.588 
L 706.177 24.588 
" style="fill: none; stroke: #262626; stroke-width: 1.25; stroke-linejoin: miter; stroke-linecap: square"/>
   </g>
   <g id="text_37">
    <!-- Error (%) $\downarrow$ -->
    <g style="fill: #262626" transform="translate(567.073857 18.588)scale(0.156 -0.156)">
     <defs>
      <path id="ArialMT-28" d="M 1497 -1347 
Q 1031 -759 709 28 
Q 388 816 388 1659 
Q 388 2403 628 3084 
Q 909 3875 1497 4659 
L 1900 4659 
Q 1522 4009 1400 3731 
Q 1209 3300 1100 2831 
Q 966 2247 966 1656 
Q 966 153 1900 -1347 
L 1497 -1347 
z
" transform="scale(0.015625)"/>
      <path id="ArialMT-25" d="M 372 3481 
Q 372 3972 619 4315 
Q 866 4659 1334 4659 
Q 1766 4659 2048 4351 
Q 2331 4044 2331 3447 
Q 2331 2866 2045 2552 
Q 1759 2238 1341 2238 
Q 925 2238 648 2547 
Q 372 2856 372 3481 
z
M 1350 4272 
Q 1141 4272 1002 4090 
Q 863 3909 863 3425 
Q 863 2984 1003 2804 
Q 1144 2625 1350 2625 
Q 1563 2625 1702 2806 
Q 1841 2988 1841 3469 
Q 1841 3913 1700 4092 
Q 1559 4272 1350 4272 
z
M 1353 -169 
L 3859 4659 
L 4316 4659 
L 1819 -169 
L 1353 -169 
z
M 3334 1075 
Q 3334 1569 3581 1911 
Q 3828 2253 4300 2253 
Q 4731 2253 5014 1945 
Q 5297 1638 5297 1041 
Q 5297 459 5011 145 
Q 4725 -169 4303 -169 
Q 3888 -169 3611 142 
Q 3334 453 3334 1075 
z
M 4316 1866 
Q 4103 1866 3964 1684 
Q 3825 1503 3825 1019 
Q 3825 581 3965 400 
Q 4106 219 4313 219 
Q 4528 219 4667 400 
Q 4806 581 4806 1063 
Q 4806 1506 4665 1686 
Q 4525 1866 4316 1866 
z
" transform="scale(0.015625)"/>
      <path id="ArialMT-29" d="M 791 -1347 
L 388 -1347 
Q 1322 153 1322 1656 
Q 1322 2244 1188 2822 
Q 1081 3291 891 3722 
Q 769 4003 388 4659 
L 791 4659 
Q 1378 3875 1659 3084 
Q 1900 2403 1900 1659 
Q 1900 816 1576 28 
Q 1253 -759 791 -1347 
z
" transform="scale(0.015625)"/>
     </defs>
     <use xlink:href="#ArialMT-45" transform="translate(0 0.09375)"/>
     <use xlink:href="#ArialMT-72" transform="translate(66.699219 0.09375)"/>
     <use xlink:href="#ArialMT-72" transform="translate(100 0.09375)"/>
     <use xlink:href="#ArialMT-6f" transform="translate(133.300781 0.09375)"/>
     <use xlink:href="#ArialMT-72" transform="translate(188.916016 0.09375)"/>
     <use xlink:href="#ArialMT-20" transform="translate(222.216797 0.09375)"/>
     <use xlink:href="#ArialMT-28" transform="translate(250 0.09375)"/>
     <use xlink:href="#ArialMT-25" transform="translate(283.300781 0.09375)"/>
     <use xlink:href="#ArialMT-29" transform="translate(372.216797 0.09375)"/>
     <use xlink:href="#ArialMT-20" transform="translate(405.517578 0.09375)"/>
     <use xlink:href="#DejaVuSans-2193" transform="translate(452.783203 0.09375)"/>
    </g>
   </g>
   <g id="legend_1">
    <g id="patch_17">
     <path d="M 181.525359 371.646898 
L 539.628641 371.646898 
Q 542.488641 371.646898 542.488641 368.786898 
L 542.488641 349.989102 
Q 542.488641 347.129102 539.628641 347.129102 
L 181.525359 347.129102 
Q 178.665359 347.129102 178.665359 349.989102 
L 178.665359 368.786898 
Q 178.665359 371.646898 181.525359 371.646898 
z
" style="fill: #ffffff; opacity: 0.8; stroke: #cccccc; stroke-linejoin: miter"/>
    </g>
    <g id="LineCollection_10">
     <path d="M 198.685359 365.229773 
L 198.685359 350.929773 
" style="fill: none; stroke: #006ba4; stroke-width: 1.5"/>
    </g>
    <g id="line2d_25"/>
    <g id="line2d_26">
     <g>
      <use xlink:href="#m5266e884da" x="198.685359" y="358.079773" style="fill: #006ba4; stroke: #006ba4"/>
     </g>
    </g>
    <g id="text_38">
     <!-- node-BNN -->
     <g style="fill: #262626" transform="translate(224.425359 363.084773)scale(0.143 -0.143)">
      <defs>
       <path id="ArialMT-42" d="M 469 0 
L 469 4581 
L 2188 4581 
Q 2713 4581 3030 4442 
Q 3347 4303 3526 4014 
Q 3706 3725 3706 3409 
Q 3706 3116 3547 2856 
Q 3388 2597 3066 2438 
Q 3481 2316 3704 2022 
Q 3928 1728 3928 1328 
Q 3928 1006 3792 729 
Q 3656 453 3456 303 
Q 3256 153 2954 76 
Q 2653 0 2216 0 
L 469 0 
z
M 1075 2656 
L 2066 2656 
Q 2469 2656 2644 2709 
Q 2875 2778 2992 2937 
Q 3109 3097 3109 3338 
Q 3109 3566 3000 3739 
Q 2891 3913 2687 3977 
Q 2484 4041 1991 4041 
L 1075 4041 
L 1075 2656 
z
M 1075 541 
L 2216 541 
Q 2509 541 2628 563 
Q 2838 600 2978 687 
Q 3119 775 3209 942 
Q 3300 1109 3300 1328 
Q 3300 1584 3169 1773 
Q 3038 1963 2805 2039 
Q 2572 2116 2134 2116 
L 1075 2116 
L 1075 541 
z
" transform="scale(0.015625)"/>
      </defs>
      <use xlink:href="#ArialMT-6e"/>
      <use xlink:href="#ArialMT-6f" x="55.615234"/>
      <use xlink:href="#ArialMT-64" x="111.230469"/>
      <use xlink:href="#ArialMT-65" x="166.845703"/>
      <use xlink:href="#ArialMT-2d" x="222.460938"/>
      <use xlink:href="#ArialMT-42" x="255.761719"/>
      <use xlink:href="#ArialMT-4e" x="322.460938"/>
      <use xlink:href="#ArialMT-4e" x="394.677734"/>
     </g>
    </g>
    <g id="LineCollection_11">
     <path d="M 334.088484 365.229773 
L 334.088484 350.929773 
" style="fill: none; stroke: #ff800e; stroke-width: 1.5"/>
    </g>
    <g id="line2d_27"/>
    <g id="line2d_28">
     <g>
      <use xlink:href="#mfca0ab9a9a" x="334.088484" y="358.079773" style="fill: #ff800e; stroke: #ff800e; stroke-linejoin: miter"/>
     </g>
    </g>
    <g id="text_39">
     <!-- SWAG -->
     <g style="fill: #262626" transform="translate(359.828484 363.084773)scale(0.143 -0.143)">
      <defs>
       <path id="ArialMT-53" d="M 288 1472 
L 859 1522 
Q 900 1178 1048 958 
Q 1197 738 1509 602 
Q 1822 466 2213 466 
Q 2559 466 2825 569 
Q 3091 672 3220 851 
Q 3350 1031 3350 1244 
Q 3350 1459 3225 1620 
Q 3100 1781 2813 1891 
Q 2628 1963 1997 2114 
Q 1366 2266 1113 2400 
Q 784 2572 623 2826 
Q 463 3081 463 3397 
Q 463 3744 659 4045 
Q 856 4347 1234 4503 
Q 1613 4659 2075 4659 
Q 2584 4659 2973 4495 
Q 3363 4331 3572 4012 
Q 3781 3694 3797 3291 
L 3216 3247 
Q 3169 3681 2898 3903 
Q 2628 4125 2100 4125 
Q 1550 4125 1298 3923 
Q 1047 3722 1047 3438 
Q 1047 3191 1225 3031 
Q 1400 2872 2139 2705 
Q 2878 2538 3153 2413 
Q 3553 2228 3743 1945 
Q 3934 1663 3934 1294 
Q 3934 928 3725 604 
Q 3516 281 3123 101 
Q 2731 -78 2241 -78 
Q 1619 -78 1198 103 
Q 778 284 539 648 
Q 300 1013 288 1472 
z
" transform="scale(0.015625)"/>
       <path id="ArialMT-57" d="M 1294 0 
L 78 4581 
L 700 4581 
L 1397 1578 
Q 1509 1106 1591 641 
Q 1766 1375 1797 1488 
L 2669 4581 
L 3400 4581 
L 4056 2263 
Q 4303 1400 4413 641 
Q 4500 1075 4641 1638 
L 5359 4581 
L 5969 4581 
L 4713 0 
L 4128 0 
L 3163 3491 
Q 3041 3928 3019 4028 
Q 2947 3713 2884 3491 
L 1913 0 
L 1294 0 
z
" transform="scale(0.015625)"/>
       <path id="ArialMT-41" d="M -9 0 
L 1750 4581 
L 2403 4581 
L 4278 0 
L 3588 0 
L 3053 1388 
L 1138 1388 
L 634 0 
L -9 0 
z
M 1313 1881 
L 2866 1881 
L 2388 3150 
Q 2169 3728 2063 4100 
Q 1975 3659 1816 3225 
L 1313 1881 
z
" transform="scale(0.015625)"/>
       <path id="ArialMT-47" d="M 2638 1797 
L 2638 2334 
L 4578 2338 
L 4578 638 
Q 4131 281 3656 101 
Q 3181 -78 2681 -78 
Q 2006 -78 1454 211 
Q 903 500 622 1047 
Q 341 1594 341 2269 
Q 341 2938 620 3517 
Q 900 4097 1425 4378 
Q 1950 4659 2634 4659 
Q 3131 4659 3532 4498 
Q 3934 4338 4162 4050 
Q 4391 3763 4509 3300 
L 3963 3150 
Q 3859 3500 3706 3700 
Q 3553 3900 3268 4020 
Q 2984 4141 2638 4141 
Q 2222 4141 1919 4014 
Q 1616 3888 1430 3681 
Q 1244 3475 1141 3228 
Q 966 2803 966 2306 
Q 966 1694 1177 1281 
Q 1388 869 1791 669 
Q 2194 469 2647 469 
Q 3041 469 3416 620 
Q 3791 772 3984 944 
L 3984 1797 
L 2638 1797 
z
" transform="scale(0.015625)"/>
      </defs>
      <use xlink:href="#ArialMT-53"/>
      <use xlink:href="#ArialMT-57" x="66.699219"/>
      <use xlink:href="#ArialMT-41" x="157.333984"/>
      <use xlink:href="#ArialMT-47" x="224.033203"/>
     </g>
    </g>
    <g id="LineCollection_12">
     <path d="M 445.889906 365.229773 
L 445.889906 350.929773 
" style="fill: none; stroke: #595959; stroke-width: 1.5"/>
    </g>
    <g id="line2d_29"/>
    <g id="line2d_30">
     <g>
      <use xlink:href="#m8caa190f64" x="445.889906" y="358.079773" style="fill: #595959; stroke: #595959; stroke-linejoin: miter"/>
     </g>
    </g>
    <g id="text_40">
     <!-- cSG-HMC -->
     <g style="fill: #262626" transform="translate(471.629906 363.084773)scale(0.143 -0.143)">
      <defs>
       <path id="ArialMT-48" d="M 513 0 
L 513 4581 
L 1119 4581 
L 1119 2700 
L 3500 2700 
L 3500 4581 
L 4106 4581 
L 4106 0 
L 3500 0 
L 3500 2159 
L 1119 2159 
L 1119 0 
L 513 0 
z
" transform="scale(0.015625)"/>
       <path id="ArialMT-4d" d="M 475 0 
L 475 4581 
L 1388 4581 
L 2472 1338 
Q 2622 884 2691 659 
Q 2769 909 2934 1394 
L 4031 4581 
L 4847 4581 
L 4847 0 
L 4263 0 
L 4263 3834 
L 2931 0 
L 2384 0 
L 1059 3900 
L 1059 0 
L 475 0 
z
" transform="scale(0.015625)"/>
      </defs>
      <use xlink:href="#ArialMT-63"/>
      <use xlink:href="#ArialMT-53" x="50"/>
      <use xlink:href="#ArialMT-47" x="116.699219"/>
      <use xlink:href="#ArialMT-2d" x="194.482422"/>
      <use xlink:href="#ArialMT-48" x="227.783203"/>
      <use xlink:href="#ArialMT-4d" x="300"/>
      <use xlink:href="#ArialMT-43" x="383.300781"/>
     </g>
    </g>
   </g>
  </g>
 </g>
 <defs>
  <clipPath id="p812f0c1d42">
   <rect x="36.577" y="24.588" width="191.314286" height="271.8"/>
  </clipPath>
  <clipPath id="p24008545ec">
   <rect x="275.719857" y="24.588" width="191.314286" height="271.8"/>
  </clipPath>
  <clipPath id="p12393ff295">
   <rect x="514.862714" y="24.588" width="191.314286" height="271.8"/>
  </clipPath>
 </defs>
</svg>
