<svg width="3477" height="762" xmlns="http://www.w3.org/2000/svg" xmlns:xlink="http://www.w3.org/1999/xlink" xml:space="preserve" overflow="hidden"><defs><clipPath id="clip0"><rect x="4236" y="2553" width="3477" height="762"/></clipPath><clipPath id="clip1"><rect x="4312" y="2891" width="1111" height="349"/></clipPath><clipPath id="clip2"><rect x="4312" y="2891" width="1111" height="349"/></clipPath><clipPath id="clip3"><rect x="4312" y="2891" width="1111" height="349"/></clipPath><clipPath id="clip4"><rect x="6732" y="2891" width="592" height="349"/></clipPath><clipPath id="clip5"><rect x="6732" y="2891" width="592" height="349"/></clipPath><clipPath id="clip6"><rect x="6732" y="2891" width="592" height="349"/></clipPath></defs><g clip-path="url(#clip0)" transform="translate(-4236 -2553)"><g clip-path="url(#clip1)"><g clip-path="url(#clip2)"><g clip-path="url(#clip3)"><path d="M48.2773-81.5677C44.7148-78.0053 42.1351-75.5485 38.2042-75.5485 36.3615-75.5485 34.6418-75.9169 30.8336-78.4967 28.3767-79.9708 25.9199-81.5677 23.0945-81.5677 18.5493-81.5677 15.8468-78.4967 10.0731-72.1088L11.793-70.389C15.3554-73.9515 17.935-76.4083 21.8661-76.4083 23.7087-76.4083 25.4285-76.0398 29.2366-73.4601 31.6935-71.986 34.1504-70.389 36.9758-70.389 41.521-70.389 44.2235-73.4601 49.9971-79.848L48.2773-81.5677Z" fill="#FF0000" transform="matrix(1.11688 0 0 1 4352.64 2973.74)"/><path d="M57.4905-43.1179C62.4043-42.9951 64.7382-42.5037 65.4753-41.8894 65.5982-41.7667 65.721-41.2753 65.8438-41.0296 65.8438-39.8011 66.8266-39.8011 67.4408-39.8011 69.4063-39.8011 73.2144-41.8894 73.2144-44.4692 73.2144-47.5402 68.055-48.1545 65.2296-48.2773 64.9839-48.2773 63.2641-48.4002 63.2641-48.523 63.2641-48.7687 65.2296-50.6113 66.2124-51.7169 77.8825-63.387 94.2205-81.8134 94.2205-83.0418 94.2205-83.4104 94.0977-83.9018 93.2378-83.9018 92.3779-83.9018 89.184-83.1647 85.6216-80.4622 83.4104-80.4622 80.3393-80.4622 73.2144-81.8134 66.4581-83.0418 62.0357-83.9018 57.2449-83.9018 49.3829-83.9018 42.0123-81.0764 35.5016-77.1455 24.4458-70.1433 23.463-63.0184 23.463-62.8957 23.463-62.5271 23.5858-61.9128 24.5686-61.9128 26.9026-61.9128 34.2732-65.4753 35.3788-68.792 36.9758-73.583 38.5727-76.2855 46.926-76.2855 48.0316-76.2855 51.4713-76.2855 58.8418-74.9342 64.9839-73.8287 70.0206-72.8459 74.4428-72.8459 75.9169-72.8459 77.3911-72.8459 78.7423-73.2144 72.2317-65.5982 66.5809-59.3332 55.8936-48.4002L43.6092-48.4002C37.0986-48.4002 35.993-44.7148 35.993-44.2235 35.993-43.1179 37.0986-43.1179 39.1869-43.1179L50.3656-43.1179C49.5057-42.1351 43.7321-36.3615 27.7625-21.9889 27.5169-21.7432 18.6722-13.7584 8.47617-5.15941 6.8792-3.80813 4.54519-1.7198 4.54519-0.859901 4.54519-0.491372 4.66803 0 5.52794 0 7.1249 0 9.70459-1.22843 11.3016-2.21117 13.5127-3.43961 15.6011-3.43961 17.5666-3.43961 23.0945-3.43961 31.0793-2.45686 36.7301-1.84265 42.6265-0.982744 50.857 0 56.8763 0 65.8438 0 73.0916-5.03656 77.0226-8.59901 84.516-15.2325 86.7272-23.9544 86.7272-24.6915 86.7272-25.4285 86.2358-25.5513 85.6216-25.5513 83.2875-25.5513 75.9169-21.9889 74.8114-18.4265 74.0744-16.0925 72.8459-11.9158 69.0377-7.61626 65.3525-7.61626 61.053-7.61626 49.7514-9.09038 43.6092-9.82744 34.3961-11.0559 27.8853-11.0559 27.1483-11.0559 24.2001-11.0559 21.8661-10.5645L57.4905-43.1179Z" fill="#FF0000" transform="matrix(1.11688 0 0 1 4312 3004.79)"/><path d="M88.6926-41.0296C88.6926-43.7321 87.9556-44.9605 86.9729-44.9605 86.3586-44.9605 85.3759-44.1007 85.2531-41.7667 84.7617-29.9737 76.654-23.2174 68.055-23.2174 60.3159-23.2174 54.4195-28.4996 48.4002-33.7818 42.1351-39.4326 35.7473-45.0834 27.394-45.0834 14.0041-45.0834 6.75636-31.5707 6.75636-20.392 6.75636-16.4609 8.35332-16.4609 8.47617-16.4609 9.82744-16.4609 10.196-18.9179 10.196-19.2863 10.6873-32.7991 19.9006-38.2042 27.394-38.2042 35.1331-38.2042 41.0296-32.922 47.0489-27.6396 53.3138-21.9889 59.7017-16.3381 68.055-16.3381 81.445-16.3381 88.6926-29.8509 88.6926-41.0296Z" transform="matrix(1.11688 0 0 1 4460.44 3004.79)"/><path d="M5.28225 15.6011C4.42235 19.2863 3.93097 20.2691-1.10559 20.2691-2.57971 20.2691-3.80813 20.2691-3.80813 22.6031-3.80813 22.8488-3.68529 23.8315-2.33402 23.8315-0.737058 23.8315 0.982744 23.5858 2.57971 23.5858L7.86196 23.5858C10.4417 23.5858 16.7066 23.8315 19.2863 23.8315 20.0234 23.8315 21.4975 23.8315 21.4975 21.6204 21.4975 20.2691 20.6376 20.2691 18.5493 20.2691 12.8985 20.2691 12.53 19.4092 12.53 18.4265 12.53 16.9523 18.0579-4.17667 18.795-7.00206 20.1463-3.56245 23.463 1.22843 29.8509 1.22843 43.7321 1.22843 58.719-16.8295 58.719-34.8874 58.719-46.1889 52.3311-54.1738 43.1179-54.1738 35.2559-54.1738 28.6224-46.5575 27.2712-44.8377 26.2884-50.9798 21.4975-54.1738 16.5838-54.1738 13.0214-54.1738 10.196-52.454 7.86196-47.7859 5.65078-43.3635 3.93097-35.8702 3.93097-35.3788 3.93097-34.8874 4.42235-34.2732 5.28225-34.2732 6.265-34.2732 6.38784-34.3961 7.1249-37.2215 8.96754-44.4692 11.3016-51.7169 16.2153-51.7169 19.0407-51.7169 20.0234-49.7514 20.0234-46.0661 20.0234-43.1179 19.6549-41.8894 19.1635-39.6783L5.28225 15.6011ZM26.5341-38.327C27.394-41.7667 30.8336-45.3291 32.7991-47.0489 34.1504-48.2773 38.2042-51.7169 42.8722-51.7169 48.2773-51.7169 50.7341-46.3118 50.7341-39.924 50.7341-34.0275 47.2946-20.1463 44.2235-13.7584 41.1524-7.1249 35.5016-1.22843 29.8509-1.22843 21.4975-1.22843 20.1463-11.793 20.1463-12.2843 20.1463-12.6528 20.392-13.6355 20.5148-14.2498L26.5341-38.327Z" transform="matrix(1.11688 0 0 1 4604.87 3004.79)"/><path d="M39.924 29.8509C39.924 29.4823 39.924 29.2366 37.8356 27.1483 25.5513 14.7412 18.6722-5.52794 18.6722-30.5879 18.6722-54.4195 24.4458-74.9342 38.6956-89.4297 39.924-90.5353 39.924-90.781 39.924-91.1495 39.924-91.8866 39.3097-92.1323 38.8184-92.1323 37.2215-92.1323 27.1483-83.2875 21.129-71.249 14.8641-58.8418 12.0387-45.6976 12.0387-30.5879 12.0387-19.6549 13.7584-5.03656 20.1463 8.10764 27.394 22.8488 37.4672 30.8336 38.8184 30.8336 39.3097 30.8336 39.924 30.5879 39.924 29.8509Z" transform="matrix(1.11688 0 0 1 4672.04 3004.79)"/><path d="M57.4905-43.1179C62.4043-42.9951 64.7382-42.5037 65.4753-41.8894 65.5982-41.7667 65.721-41.2753 65.8438-41.0296 65.8438-39.8011 66.8266-39.8011 67.4408-39.8011 69.4063-39.8011 73.2144-41.8894 73.2144-44.4692 73.2144-47.5402 68.055-48.1545 65.2296-48.2773 64.9839-48.2773 63.2641-48.4002 63.2641-48.523 63.2641-48.7687 65.2296-50.6113 66.2124-51.7169 77.8825-63.387 94.2205-81.8134 94.2205-83.0418 94.2205-83.4104 94.0977-83.9018 93.2378-83.9018 92.3779-83.9018 89.184-83.1647 85.6216-80.4622 83.4104-80.4622 80.3393-80.4622 73.2144-81.8134 66.4581-83.0418 62.0357-83.9018 57.2449-83.9018 49.3829-83.9018 42.0123-81.0764 35.5016-77.1455 24.4458-70.1433 23.463-63.0184 23.463-62.8957 23.463-62.5271 23.5858-61.9128 24.5686-61.9128 26.9026-61.9128 34.2732-65.4753 35.3788-68.792 36.9758-73.583 38.5727-76.2855 46.926-76.2855 48.0316-76.2855 51.4713-76.2855 58.8418-74.9342 64.9839-73.8287 70.0206-72.8459 74.4428-72.8459 75.9169-72.8459 77.3911-72.8459 78.7423-73.2144 72.2317-65.5982 66.5809-59.3332 55.8936-48.4002L43.6092-48.4002C37.0986-48.4002 35.993-44.7148 35.993-44.2235 35.993-43.1179 37.0986-43.1179 39.1869-43.1179L50.3656-43.1179C49.5057-42.1351 43.7321-36.3615 27.7625-21.9889 27.5169-21.7432 18.6722-13.7584 8.47617-5.15941 6.8792-3.80813 4.54519-1.7198 4.54519-0.859901 4.54519-0.491372 4.66803 0 5.52794 0 7.1249 0 9.70459-1.22843 11.3016-2.21117 13.5127-3.43961 15.6011-3.43961 17.5666-3.43961 23.0945-3.43961 31.0793-2.45686 36.7301-1.84265 42.6265-0.982744 50.857 0 56.8763 0 65.8438 0 73.0916-5.03656 77.0226-8.59901 84.516-15.2325 86.7272-23.9544 86.7272-24.6915 86.7272-25.4285 86.2358-25.5513 85.6216-25.5513 83.2875-25.5513 75.9169-21.9889 74.8114-18.4265 74.0744-16.0925 72.8459-11.9158 69.0377-7.61626 65.3525-7.61626 61.053-7.61626 49.7514-9.09038 43.6092-9.82744 34.3961-11.0559 27.8853-11.0559 27.1483-11.0559 24.2001-11.0559 21.8661-10.5645L57.4905-43.1179Z" fill="#FF0000" transform="matrix(1.11688 0 0 1 4724.08 3004.79)"/><path d="M34.6418-30.5879C34.6418-39.924 33.4133-55.1565 26.5341-69.4063 19.2863-84.1475 9.21323-92.1323 7.86196-92.1323 7.37058-92.1323 6.75636-91.8866 6.75636-91.1495 6.75636-90.781 6.75636-90.5353 8.8447-88.447 21.129-76.0398 28.0082-55.7708 28.0082-30.7107 28.0082-6.8792 22.2346 13.6355 7.9848 28.131 6.75636 29.2366 6.75636 29.4823 6.75636 29.8509 6.75636 30.5879 7.37058 30.8336 7.86196 30.8336 9.45891 30.8336 19.532 21.9889 25.5513 9.95029 31.8164-2.57971 34.6418-15.8468 34.6418-30.5879Z" transform="matrix(1.11688 0 0 1 4834.42 3004.79)"/><path d="M48.2773-81.5677C44.7148-78.0053 42.1351-75.5485 38.2042-75.5485 36.3615-75.5485 34.6418-75.9169 30.8336-78.4967 28.3767-79.9708 25.9199-81.5677 23.0945-81.5677 18.5493-81.5677 15.8468-78.4967 10.0731-72.1088L11.793-70.389C15.3554-73.9515 17.935-76.4083 21.8661-76.4083 23.7087-76.4083 25.4285-76.0398 29.2366-73.4601 31.6935-71.986 34.1504-70.389 36.9758-70.389 41.521-70.389 44.2235-73.4601 49.9971-79.848L48.2773-81.5677Z" transform="matrix(1.11688 0 0 1 4346.94 3206.29)"/><path d="M60.8073-46.5575C61.5444-48.2773 62.0357-49.26 69.8977-49.26L69.8977-54.5423C65.721-54.2966 65.2296-54.2966 60.193-54.2966 56.8763-54.2966 56.6306-54.2966 49.6286-54.5423L49.6286-49.26C49.7514-49.26 55.5251-49.26 55.5251-47.6631 55.5251-47.2946 55.1565-46.5575 55.0337-46.1889L40.661-15.2325 24.9371-49.26 31.6935-49.26 31.6935-54.5423C28.7453-54.2966 20.392-54.2966 16.9523-54.2966 13.3899-54.2966 6.14215-54.2966 2.94823-54.5423L2.94823-49.26 10.8101-49.26 33.5361 0C32.922 1.47412 31.2021 5.03656 30.5879 6.51068 28.0082 12.0387 24.0772 20.5148 15.4782 20.5148 14.9868 20.5148 13.5127 20.5148 12.1614 19.7777 12.4071 19.6549 16.0925 18.1807 16.0925 13.5127 16.0925 9.45891 13.1442 6.8792 9.45891 6.8792 5.65078 6.8792 2.70255 9.45891 2.70255 13.6355 2.70255 19.4092 8.10764 24.5686 15.4782 24.5686 25.5513 24.5686 32.1848 15.4782 34.6418 10.0731L60.8073-46.5575Z" transform="matrix(1.11688 0 0 1 4338.72 3207.99)"/><path d="M82.9191-39.8011C84.6388-39.8011 86.85-39.8011 86.85-42.0123 86.85-44.3464 84.7617-44.3464 82.9191-44.3464L10.5645-44.3464C8.8447-44.3464 6.63352-44.3464 6.63352-42.1351 6.63352-39.8011 8.72185-39.8011 10.5645-39.8011L82.9191-39.8011ZM82.9191-16.9523C84.6388-16.9523 86.85-16.9523 86.85-19.1635 86.85-21.4975 84.7617-21.4975 82.9191-21.4975L10.5645-21.4975C8.8447-21.4975 6.63352-21.4975 6.63352-19.2863 6.63352-16.9523 8.72185-16.9523 10.5645-16.9523L82.9191-16.9523Z" transform="matrix(1.11688 0 0 1 4460.44 3207.99)"/><path d="M26.6569-49.26 40.661-49.26 40.661-54.5423 26.0428-54.5423 26.0428-67.1952C26.0428-79.9708 34.1504-81.9363 38.2042-81.9363 39.5554-81.9363 39.8011-81.8134 40.5382-81.5677 38.6956-80.3393 37.5899-78.251 37.5899-75.6713 37.5899-70.7576 41.521-68.5464 44.7148-68.5464 47.4174-68.5464 51.8397-70.389 51.8397-75.7942 51.8397-80.8307 47.4174-85.9901 38.6956-85.9901 27.5169-85.9901 13.8812-81.3221 13.8812-67.0723L13.8812-54.5423 4.79088-54.5423 4.79088-49.26 13.8812-49.26 13.8812-5.28225 5.40509-5.28225 5.40509 0C8.23048-0.245686 17.4437-0.245686 20.8833-0.245686 24.4458-0.245686 34.3961-0.245686 37.3443 0L37.3443-5.28225 26.6569-5.28225 26.6569-49.26Z" transform="matrix(1.11688 0 0 1 4602.65 3207.99)"/><path d="M39.924 29.8509C39.924 29.4823 39.924 29.2366 37.8356 27.1483 25.5513 14.7412 18.6722-5.52794 18.6722-30.5879 18.6722-54.4195 24.4458-74.9342 38.6956-89.4297 39.924-90.5353 39.924-90.781 39.924-91.1495 39.924-91.8866 39.3097-92.1323 38.8184-92.1323 37.2215-92.1323 27.1483-83.2875 21.129-71.249 14.8641-58.8418 12.0387-45.6976 12.0387-30.5879 12.0387-19.6549 13.7584-5.03656 20.1463 8.10764 27.394 22.8488 37.4672 30.8336 38.8184 30.8336 39.3097 30.8336 39.924 30.5879 39.924 29.8509Z" transform="matrix(1.11688 0 0 1 4663.7 3207.99)"/><path d="M41.3981-30.3423 55.6479-46.6803C56.9992-48.2773 58.1047-49.26 68.3007-49.26L68.3007-54.5423C61.4215-54.2966 61.1758-54.2966 56.9992-54.2966 53.4367-54.2966 48.1545-54.2966 44.7148-54.5423L44.7148-49.26C47.0489-49.26 49.6286-48.6459 49.6286-47.7859 49.6286-47.5402 49.0143-46.6803 48.7687-46.4346L38.0813-34.3961 25.9199-49.26 31.0793-49.26 31.0793-54.5423C28.2539-54.2966 19.9006-54.2966 16.5838-54.2966 12.8985-54.2966 6.265-54.2966 2.82539-54.5423L2.82539-49.26 11.5473-49.26 30.7107-25.9199 14.7412-7.86196C13.2671-6.14215 12.4071-5.28225 2.21117-5.28225L2.21117 0C9.58175-0.245686 9.82744-0.245686 13.6355-0.245686 17.198-0.245686 22.3574-0.245686 25.7971 0L25.7971-5.28225C23.463-5.28225 20.8833-5.89646 20.8833-6.75636 20.8833-6.8792 20.8833-7.00206 21.7432-7.9848L34.0275-21.8661 47.6631-5.28225 42.5037-5.28225 42.5037 0C45.4519-0.245686 53.6824-0.245686 57.122-0.245686 60.8073-0.245686 67.3179-0.245686 70.7576 0L70.7576-5.28225 62.1586-5.28225 41.3981-30.3423Z" transform="matrix(1.11688 0 0 1 4715.74 3207.99)"/><path d="M22.6031-47.0489C22.6031-50.3656 19.7777-52.9454 16.7066-52.9454 13.1442-52.9454 10.6873-50.12 10.6873-47.0489 10.6873-43.3635 13.7584-41.0296 16.5838-41.0296 19.9006-41.0296 22.6031-43.6092 22.6031-47.0489ZM20.5148-1.22843C20.5148 3.07107 20.5148 11.793 13.0214 21.0061 12.2843 21.9889 12.2843 22.2346 12.2843 22.4803 12.2843 23.0945 12.8985 23.7087 13.5127 23.7087 14.3726 23.7087 22.9717 14.6184 22.9717 0.245686 22.9717-4.29951 22.6031-11.9158 16.5838-11.9158 13.0214-11.9158 10.6873-9.21323 10.6873-6.0193 10.6873-2.70255 13.0214 0 16.7066 0 19.0407 0 19.9006-0.737058 20.5148-1.22843Z" transform="matrix(1.11688 0 0 1 4796.9 3207.99)"/><path d="M57.4905-43.1179C62.4043-42.9951 64.7382-42.5037 65.4753-41.8894 65.5982-41.7667 65.721-41.2753 65.8438-41.0296 65.8438-39.8011 66.8266-39.8011 67.4408-39.8011 69.4063-39.8011 73.2144-41.8894 73.2144-44.4692 73.2144-47.5402 68.055-48.1545 65.2296-48.2773 64.9839-48.2773 63.2641-48.4002 63.2641-48.523 63.2641-48.7687 65.2296-50.6113 66.2124-51.7169 77.8825-63.387 94.2205-81.8134 94.2205-83.0418 94.2205-83.4104 94.0977-83.9018 93.2378-83.9018 92.3779-83.9018 89.184-83.1647 85.6216-80.4622 83.4104-80.4622 80.3393-80.4622 73.2144-81.8134 66.4581-83.0418 62.0357-83.9018 57.2449-83.9018 49.3829-83.9018 42.0123-81.0764 35.5016-77.1455 24.4458-70.1433 23.463-63.0184 23.463-62.8957 23.463-62.5271 23.5858-61.9128 24.5686-61.9128 26.9026-61.9128 34.2732-65.4753 35.3788-68.792 36.9758-73.583 38.5727-76.2855 46.926-76.2855 48.0316-76.2855 51.4713-76.2855 58.8418-74.9342 64.9839-73.8287 70.0206-72.8459 74.4428-72.8459 75.9169-72.8459 77.3911-72.8459 78.7423-73.2144 72.2317-65.5982 66.5809-59.3332 55.8936-48.4002L43.6092-48.4002C37.0986-48.4002 35.993-44.7148 35.993-44.2235 35.993-43.1179 37.0986-43.1179 39.1869-43.1179L50.3656-43.1179C49.5057-42.1351 43.7321-36.3615 27.7625-21.9889 27.5169-21.7432 18.6722-13.7584 8.47617-5.15941 6.8792-3.80813 4.54519-1.7198 4.54519-0.859901 4.54519-0.491372 4.66803 0 5.52794 0 7.1249 0 9.70459-1.22843 11.3016-2.21117 13.5127-3.43961 15.6011-3.43961 17.5666-3.43961 23.0945-3.43961 31.0793-2.45686 36.7301-1.84265 42.6265-0.982744 50.857 0 56.8763 0 65.8438 0 73.0916-5.03656 77.0226-8.59901 84.516-15.2325 86.7272-23.9544 86.7272-24.6915 86.7272-25.4285 86.2358-25.5513 85.6216-25.5513 83.2875-25.5513 75.9169-21.9889 74.8114-18.4265 74.0744-16.0925 72.8459-11.9158 69.0377-7.61626 65.3525-7.61626 61.053-7.61626 49.7514-9.09038 43.6092-9.82744 34.3961-11.0559 27.8853-11.0559 27.1483-11.0559 24.2001-11.0559 21.8661-10.5645L57.4905-43.1179Z" fill="#FF0000" transform="matrix(1.11688 0 0 1 4856.95 3207.99)"/><path d="M82.9191-39.8011C84.6388-39.8011 86.85-39.8011 86.85-42.0123 86.85-44.3464 84.7617-44.3464 82.9191-44.3464L10.5645-44.3464C8.8447-44.3464 6.63352-44.3464 6.63352-42.1351 6.63352-39.8011 8.72185-39.8011 10.5645-39.8011L82.9191-39.8011ZM82.9191-16.9523C84.6388-16.9523 86.85-16.9523 86.85-19.1635 86.85-21.4975 84.7617-21.4975 82.9191-21.4975L10.5645-21.4975C8.8447-21.4975 6.63352-21.4975 6.63352-19.2863 6.63352-16.9523 8.72185-16.9523 10.5645-16.9523L82.9191-16.9523Z" transform="matrix(1.11688 0 0 1 5005.39 3207.99)"/><path d="M48.2773-81.5677C44.7148-78.0053 42.1351-75.5485 38.2042-75.5485 36.3615-75.5485 34.6418-75.9169 30.8336-78.4967 28.3767-79.9708 25.9199-81.5677 23.0945-81.5677 18.5493-81.5677 15.8468-78.4967 10.0731-72.1088L11.793-70.389C15.3554-73.9515 17.935-76.4083 21.8661-76.4083 23.7087-76.4083 25.4285-76.0398 29.2366-73.4601 31.6935-71.986 34.1504-70.389 36.9758-70.389 41.521-70.389 44.2235-73.4601 49.9971-79.848L48.2773-81.5677Z" fill="#FF0000" transform="matrix(1.11688 0 0 1 5188.23 3176.94)"/><path d="M57.4905-43.1179C62.4043-42.9951 64.7382-42.5037 65.4753-41.8894 65.5982-41.7667 65.721-41.2753 65.8438-41.0296 65.8438-39.8011 66.8266-39.8011 67.4408-39.8011 69.4063-39.8011 73.2144-41.8894 73.2144-44.4692 73.2144-47.5402 68.055-48.1545 65.2296-48.2773 64.9839-48.2773 63.2641-48.4002 63.2641-48.523 63.2641-48.7687 65.2296-50.6113 66.2124-51.7169 77.8825-63.387 94.2205-81.8134 94.2205-83.0418 94.2205-83.4104 94.0977-83.9018 93.2378-83.9018 92.3779-83.9018 89.184-83.1647 85.6216-80.4622 83.4104-80.4622 80.3393-80.4622 73.2144-81.8134 66.4581-83.0418 62.0357-83.9018 57.2449-83.9018 49.3829-83.9018 42.0123-81.0764 35.5016-77.1455 24.4458-70.1433 23.463-63.0184 23.463-62.8957 23.463-62.5271 23.5858-61.9128 24.5686-61.9128 26.9026-61.9128 34.2732-65.4753 35.3788-68.792 36.9758-73.583 38.5727-76.2855 46.926-76.2855 48.0316-76.2855 51.4713-76.2855 58.8418-74.9342 64.9839-73.8287 70.0206-72.8459 74.4428-72.8459 75.9169-72.8459 77.3911-72.8459 78.7423-73.2144 72.2317-65.5982 66.5809-59.3332 55.8936-48.4002L43.6092-48.4002C37.0986-48.4002 35.993-44.7148 35.993-44.2235 35.993-43.1179 37.0986-43.1179 39.1869-43.1179L50.3656-43.1179C49.5057-42.1351 43.7321-36.3615 27.7625-21.9889 27.5169-21.7432 18.6722-13.7584 8.47617-5.15941 6.8792-3.80813 4.54519-1.7198 4.54519-0.859901 4.54519-0.491372 4.66803 0 5.52794 0 7.1249 0 9.70459-1.22843 11.3016-2.21117 13.5127-3.43961 15.6011-3.43961 17.5666-3.43961 23.0945-3.43961 31.0793-2.45686 36.7301-1.84265 42.6265-0.982744 50.857 0 56.8763 0 65.8438 0 73.0916-5.03656 77.0226-8.59901 84.516-15.2325 86.7272-23.9544 86.7272-24.6915 86.7272-25.4285 86.2358-25.5513 85.6216-25.5513 83.2875-25.5513 75.9169-21.9889 74.8114-18.4265 74.0744-16.0925 72.8459-11.9158 69.0377-7.61626 65.3525-7.61626 61.053-7.61626 49.7514-9.09038 43.6092-9.82744 34.3961-11.0559 27.8853-11.0559 27.1483-11.0559 24.2001-11.0559 21.8661-10.5645L57.4905-43.1179Z" fill="#FF0000" transform="matrix(1.11688 0 0 1 5147.59 3207.99)"/><path d="M23.9544 0.491372C23.9544-6.63352 21.6204-11.9158 16.5838-11.9158 12.6528-11.9158 10.6873-8.72185 10.6873-6.0193 10.6873-3.31676 12.53 0 16.7066 0 18.3036 0 19.6549-0.491372 20.7604-1.59696 21.0061-1.84265 21.129-1.84265 21.2518-1.84265 21.4975-1.84265 21.4975-0.122843 21.4975 0.491372 21.4975 4.54519 20.7604 12.53 13.6355 20.5148 12.2843 21.9889 12.2843 22.2346 12.2843 22.4803 12.2843 23.0945 12.8985 23.7087 13.5127 23.7087 14.4955 23.7087 23.9544 14.6184 23.9544 0.491372Z" transform="matrix(1.11688 0 0 1 5257.93 3207.99)"/><path d="M30.0966-85.2531 14.0041-68.5464 15.9696-66.7038 29.9737-79.3566 44.1007-66.7038 46.0661-68.5464 30.0966-85.2531Z" fill="#0000FF" transform="matrix(1.11688 0 0 1 5328.75 3175.57)"/><path d="M54.4195-61.79C54.4195-74.3201 50.4884-86.4815 40.4153-86.4815 23.2174-86.4815 4.91372-50.4884 4.91372-23.463 4.91372-17.8122 6.14215 1.22843 19.0407 1.22843 35.7473 1.22843 54.4195-33.9047 54.4195-61.79ZM17.198-44.4692C19.0407-51.7169 21.6204-62.0357 26.5341-70.7576 30.5879-78.1282 34.8874-84.0246 40.2926-84.0246 44.3464-84.0246 47.0489-80.585 47.0489-68.792 47.0489-64.3698 46.6803-58.2276 43.1179-44.4692L17.198-44.4692ZM42.258-40.7839C39.1869-28.7453 36.6072-21.0061 32.1848-13.2671 28.6224-7.00206 24.3229-1.22843 19.1635-1.22843 15.3554-1.22843 12.2843-4.17667 12.2843-16.3381 12.2843-24.3229 14.2498-32.6762 16.2153-40.7839L42.258-40.7839Z" fill="#0000FF" transform="matrix(1.11688 0 0 1 5317.97 3207.99)"/><path d="M34.6418-30.5879C34.6418-39.924 33.4133-55.1565 26.5341-69.4063 19.2863-84.1475 9.21323-92.1323 7.86196-92.1323 7.37058-92.1323 6.75636-91.8866 6.75636-91.1495 6.75636-90.781 6.75636-90.5353 8.8447-88.447 21.129-76.0398 28.0082-55.7708 28.0082-30.7107 28.0082-6.8792 22.2346 13.6355 7.9848 28.131 6.75636 29.2366 6.75636 29.4823 6.75636 29.8509 6.75636 30.5879 7.37058 30.8336 7.86196 30.8336 9.45891 30.8336 19.532 21.9889 25.5513 9.95029 31.8164-2.57971 34.6418-15.8468 34.6418-30.5879Z" transform="matrix(1.11688 0 0 1 5384.3 3207.99)"/></g></g></g><path d="M4241.5 2681C4241.5 2611.14 4298.14 2554.5 4368 2554.5L5369 2554.5C5438.86 2554.5 5495.5 2611.14 5495.5 2681L5495.5 3187C5495.5 3256.86 5438.86 3313.5 5369 3313.5L4368 3313.5C4298.14 3313.5 4241.5 3256.86 4241.5 3187Z" stroke="#4472C4" stroke-width="3.4375" stroke-linejoin="round" stroke-miterlimit="10" fill="none" fill-rule="evenodd"/><text fill="#4472C4" font-family="Arial,Arial_MSFontService,sans-serif" font-weight="400" font-size="96" transform="matrix(1 0 0 1 4294.05 2702)">Node<tspan font-size="96" x="229.167" y="0">-</tspan><tspan font-size="96" x="261.25" y="0">BNN with a latent </tspan><tspan font-size="96" x="0" y="115">distribution (Fig. A)</tspan></text><path d="M6457.5 2681C6457.5 2611.14 6514.14 2554.5 6584 2554.5L7585 2554.5C7654.86 2554.5 7711.5 2611.14 7711.5 2681L7711.5 3187C7711.5 3256.86 7654.86 3313.5 7585 3313.5L6584 3313.5C6514.14 3313.5 6457.5 3256.86 6457.5 3187Z" stroke="#4472C4" stroke-width="3.4375" stroke-linejoin="round" stroke-miterlimit="10" fill="none" fill-rule="evenodd"/><text fill="#4472C4" font-family="Arial,Arial_MSFontService,sans-serif" font-weight="400" font-size="96" transform="matrix(1 0 0 1 6510.81 2702)">Deterministic NN with an <tspan font-size="96" x="0" y="115">input distribution (Fig. B)</tspan></text><path d="M5604.5 2939 5679 2864.5 5679 2901.75 6280 2901.75 6280 2864.5 6354.5 2939 6280 3013.5 6280 2976.25 5679 2976.25 5679 3013.5Z" stroke="#4472C4" stroke-width="4.58333" stroke-miterlimit="8" fill="#FFFFFF" fill-rule="evenodd"/><g clip-path="url(#clip4)"><g clip-path="url(#clip5)"><g clip-path="url(#clip6)"><path d="M51.1774-86.4677C47.401-82.6912 44.6663-80.0868 40.4992-80.0868 38.5458-80.0868 36.7228-80.4774 32.6859-83.2121 30.0813-84.7748 27.4769-86.4677 24.4818-86.4677 19.6636-86.4677 16.7987-83.2121 10.6782-76.4405L12.5014-74.6174C16.2778-78.3939 19.0124-80.9983 23.1796-80.9983 25.133-80.9983 26.956-80.6077 30.9929-77.873 33.5974-76.3104 36.2019-74.6174 39.197-74.6174 44.0152-74.6174 46.8801-77.873 53.0005-84.6446L51.1774-86.4677Z" fill="#70AD47" transform="matrix(1 0 0 1.00088 6740.81 2988.41)"/><path d="M43.8849-32.165 58.9907-49.4845C60.4232-51.1774 61.5952-52.2192 72.4036-52.2192L72.4036-57.8187C65.1112-57.5583 64.8507-57.5583 60.4232-57.5583 56.6468-57.5583 51.0472-57.5583 47.401-57.8187L47.401-52.2192C49.8752-52.2192 52.6099-51.5681 52.6099-50.6565 52.6099-50.3961 51.9587-49.4845 51.6983-49.224L40.3689-36.4623 27.4769-52.2192 32.9463-52.2192 32.9463-57.8187C29.9512-57.5583 21.0961-57.5583 17.5801-57.5583 13.6733-57.5583 6.64135-57.5583 2.99512-57.8187L2.99512-52.2192 12.241-52.2192 32.5556-27.4769 15.6267-8.33424C14.064-6.51112 13.1524-5.59956 2.344-5.59956L2.344 0C10.1573-0.260444 10.4178-0.260444 14.4547-0.260444 18.2311-0.260444 23.7005-0.260444 27.3468 0L27.3468-5.59956C24.8725-5.59956 22.1378-6.25068 22.1378-7.16223 22.1378-7.29245 22.1378-7.42268 23.0493-8.46446L36.0716-23.1796 50.5264-5.59956 45.057-5.59956 45.057 0C48.1823-0.260444 56.9072-0.260444 60.5534-0.260444 64.4601-0.260444 71.3619-0.260444 75.0082 0L75.0082-5.59956 65.8926-5.59956 43.8849-32.165Z" fill="#70AD47" transform="matrix(1 0 0 1.00088 6734.03 2990.22)"/><path d="M94.0206-43.4943C94.0206-46.3592 93.2393-47.6614 92.1975-47.6614 91.5463-47.6614 90.5046-46.7499 90.3744-44.2757 89.8535-31.7743 81.2587-24.6121 72.1432-24.6121 63.9392-24.6121 57.6885-30.2116 51.3077-35.8112 44.6663-41.8014 37.8947-47.7917 29.0396-47.7917 14.8454-47.7917 7.16223-33.4672 7.16223-21.6169 7.16223-17.4498 8.85512-17.4498 8.98535-17.4498 10.4178-17.4498 10.8085-20.0543 10.8085-20.4449 11.3294-34.7694 21.0961-40.4992 29.0396-40.4992 37.2436-40.4992 43.4943-34.8997 49.8752-29.3 56.5165-23.3099 63.2881-17.3196 72.1432-17.3196 86.3375-17.3196 94.0206-31.6441 94.0206-43.4943Z" transform="matrix(1 0 0 1.00088 6847.52 2990.22)"/><path d="M5.59956 16.5383C4.68801 20.4449 4.16711 21.4867-1.17201 21.4867-2.73468 21.4867-4.03689 21.4867-4.03689 23.9609-4.03689 24.2214-3.90667 25.2631-2.47422 25.2631-0.781335 25.2631 1.04178 25.0027 2.73468 25.0027L8.33424 25.0027C11.0689 25.0027 17.7102 25.2631 20.4449 25.2631 21.2262 25.2631 22.7889 25.2631 22.7889 22.9192 22.7889 21.4867 21.8774 21.4867 19.6636 21.4867 13.6733 21.4867 13.2827 20.5752 13.2827 19.5334 13.2827 17.9707 19.1427-4.42757 19.924-7.42268 21.3565-3.77645 24.8725 1.30223 31.6441 1.30223 46.3592 1.30223 62.2463-17.8405 62.2463-36.9832 62.2463-48.9636 55.4747-57.4281 45.708-57.4281 37.3738-57.4281 30.3418-49.3543 28.9094-47.5312 27.8676-54.0423 22.7889-57.4281 17.5801-57.4281 13.8036-57.4281 10.8085-55.605 8.33424-50.6565 5.99023-45.9685 4.16711-38.025 4.16711-37.5041 4.16711-36.9832 4.68801-36.332 5.59956-36.332 6.64135-36.332 6.77157-36.4623 7.5529-39.4574 9.50623-47.1405 11.9805-54.8237 17.1893-54.8237 20.1845-54.8237 21.2262-52.74 21.2262-48.8334 21.2262-45.708 20.8356-44.4058 20.3147-42.0619L5.59956 16.5383ZM28.1281-40.6294C29.0396-44.2757 32.6859-48.0521 34.7694-49.8752 36.2019-51.1774 40.4992-54.8237 45.4476-54.8237 51.1774-54.8237 53.7818-49.0939 53.7818-42.3223 53.7818-36.0716 50.1356-21.3565 46.8801-14.5849 43.6245-7.5529 37.6342-1.30223 31.6441-1.30223 22.7889-1.30223 21.3565-12.5014 21.3565-13.0223 21.3565-13.4129 21.6169-14.4547 21.7471-15.1058L28.1281-40.6294Z" transform="matrix(1 0 0 1.00088 6984.6 2990.22)"/><path d="M42.3223 31.6441C42.3223 31.2534 42.3223 30.9929 40.1085 28.7791 27.0862 15.6267 19.7939-5.86001 19.7939-32.4254 19.7939-57.6885 25.9143-79.4357 41.0201-94.8019 42.3223-95.9739 42.3223-96.2344 42.3223-96.625 42.3223-97.4064 41.6711-97.6669 41.1503-97.6669 39.4574-97.6669 28.7791-88.2908 22.3983-75.529 15.757-62.3766 12.7618-48.4427 12.7618-32.4254 12.7618-20.8356 14.5849-5.33912 21.3565 8.59468 29.0396 24.2214 39.7179 32.6859 41.1503 32.6859 41.6711 32.6859 42.3223 32.4254 42.3223 31.6441Z" transform="matrix(1 0 0 1.00088 7048.35 2990.22)"/><path d="M43.8849-32.165 58.9907-49.4845C60.4232-51.1774 61.5952-52.2192 72.4036-52.2192L72.4036-57.8187C65.1112-57.5583 64.8507-57.5583 60.4232-57.5583 56.6468-57.5583 51.0472-57.5583 47.401-57.8187L47.401-52.2192C49.8752-52.2192 52.6099-51.5681 52.6099-50.6565 52.6099-50.3961 51.9587-49.4845 51.6983-49.224L40.3689-36.4623 27.4769-52.2192 32.9463-52.2192 32.9463-57.8187C29.9512-57.5583 21.0961-57.5583 17.5801-57.5583 13.6733-57.5583 6.64135-57.5583 2.99512-57.8187L2.99512-52.2192 12.241-52.2192 32.5556-27.4769 15.6267-8.33424C14.064-6.51112 13.1524-5.59956 2.344-5.59956L2.344 0C10.1573-0.260444 10.4178-0.260444 14.4547-0.260444 18.2311-0.260444 23.7005-0.260444 27.3468 0L27.3468-5.59956C24.8725-5.59956 22.1378-6.25068 22.1378-7.16223 22.1378-7.29245 22.1378-7.42268 23.0493-8.46446L36.0716-23.1796 50.5264-5.59956 45.057-5.59956 45.057 0C48.1823-0.260444 56.9072-0.260444 60.5534-0.260444 64.4601-0.260444 71.3619-0.260444 75.0082 0L75.0082-5.59956 65.8926-5.59956 43.8849-32.165Z" fill="#70AD47" transform="matrix(1 0 0 1.00088 7097.75 2990.22)"/><path d="M35.5074-33.2501C31.9479-32.816 30.8193-30.1248 30.8193-28.3885 30.8193-25.8708 33.0765-25.1763 34.205-25.1763 34.6391-25.1763 39.0667-25.5236 39.0667-30.8193 39.0667-36.1151 33.3369-38.2854 28.1281-38.2854 15.8003-38.2854 3.81986-26.3049 3.81986-14.1509 3.81986-5.90342 9.46283 0.868149 19.0992 0.868149 32.816 0.868149 40.0217-7.90016 40.0217-9.02876 40.0217-9.81009 39.1535-10.4178 38.6327-10.4178 38.1118-10.4178 37.8513-10.1573 37.4173-9.63646 30.5589-1.56267 20.8356-1.56267 19.2729-1.56267 14.5849-1.56267 10.8519-4.42757 10.8519-11.0255 10.8519-14.8454 12.5882-24.0477 16.6685-29.4303 20.4884-34.2919 24.8291-35.8546 28.2149-35.8546 29.2567-35.8546 33.2501-35.7678 35.5074-33.2501Z" fill="#70AD47" transform="matrix(1 0 0 1.00088 7174.78 2936.4)"/><path d="M36.7228-32.4254C36.7228-42.3223 35.4205-58.4699 28.1281-73.5757 20.4449-89.2024 9.76669-97.6669 8.33424-97.6669 7.81334-97.6669 7.16223-97.4064 7.16223-96.625 7.16223-96.2344 7.16223-95.9739 9.37601-93.7601 22.3983-80.6077 29.6907-59.121 29.6907-32.5556 29.6907-7.29245 23.5703 14.4547 8.46446 29.8209 7.16223 30.9929 7.16223 31.2534 7.16223 31.6441 7.16223 32.4254 7.81334 32.6859 8.33424 32.6859 10.0271 32.6859 20.7053 23.3099 27.0862 10.548 33.7276-2.73468 36.7228-16.7987 36.7228-32.4254Z" transform="matrix(1 0 0 1.00088 7220.46 2990.22)"/><path d="M51.1774-86.4677C47.401-82.6912 44.6663-80.0868 40.4992-80.0868 38.5458-80.0868 36.7228-80.4774 32.6859-83.2121 30.0813-84.7748 27.4769-86.4677 24.4818-86.4677 19.6636-86.4677 16.7987-83.2121 10.6782-76.4405L12.5014-74.6174C16.2778-78.3939 19.0124-80.9983 23.1796-80.9983 25.133-80.9983 26.956-80.6077 30.9929-77.873 33.5974-76.3104 36.2019-74.6174 39.197-74.6174 44.0152-74.6174 46.8801-77.873 53.0005-84.6446L51.1774-86.4677Z" transform="matrix(1 0 0 1.00088 6739.79 3204.01)"/><path d="M64.4601-49.3543C65.2414-51.1774 65.7623-52.2192 74.0966-52.2192L74.0966-57.8187C69.6689-57.5583 69.1481-57.5583 63.809-57.5583 60.293-57.5583 60.0325-57.5583 52.6099-57.8187L52.6099-52.2192C52.74-52.2192 58.8606-52.2192 58.8606-50.5264 58.8606-50.1356 58.4699-49.3543 58.3397-48.9636L43.1036-16.1476 26.4352-52.2192 33.5974-52.2192 33.5974-57.8187C30.4721-57.5583 21.6169-57.5583 17.9707-57.5583 14.1942-57.5583 6.51112-57.5583 3.12534-57.8187L3.12534-52.2192 11.4595-52.2192 35.5507 0C34.8997 1.56267 33.0765 5.33912 32.4254 6.90179 29.6907 12.7618 25.5236 21.7471 16.408 21.7471 15.8871 21.7471 14.3245 21.7471 12.892 20.9658 13.1524 20.8356 17.0592 19.2729 17.0592 14.3245 17.0592 10.0271 13.9338 7.29245 10.0271 7.29245 5.99023 7.29245 2.8649 10.0271 2.8649 14.4547 2.8649 20.5752 8.59468 26.0444 16.408 26.0444 27.0862 26.0444 34.1182 16.408 36.7228 10.6782L64.4601-49.3543Z" transform="matrix(1 0 0 1.00088 6731.99 3205.82)"/><path d="M87.9002-42.192C89.7233-42.192 92.0672-42.192 92.0672-44.5361 92.0672-47.0103 89.8535-47.0103 87.9002-47.0103L11.1991-47.0103C9.37601-47.0103 7.03201-47.0103 7.03201-44.6663 7.03201-42.192 9.24579-42.192 11.1991-42.192L87.9002-42.192ZM87.9002-17.9707C89.7233-17.9707 92.0672-17.9707 92.0672-20.3147 92.0672-22.7889 89.8535-22.7889 87.9002-22.7889L11.1991-22.7889C9.37601-22.7889 7.03201-22.7889 7.03201-20.4449 7.03201-17.9707 9.24579-17.9707 11.1991-17.9707L87.9002-17.9707Z" transform="matrix(1 0 0 1.00088 6847.52 3205.82)"/><path d="M36.5925-90.3744 16.6685-73.8361 20.0543-69.4085 36.5925-80.4774 53.0005-69.4085 56.3863-73.8361 36.5925-90.3744Z" transform="matrix(1 0 0 1.00088 6974.92 3173.23)"/><path d="M28.2583-52.2192 43.1036-52.2192 43.1036-57.8187 27.6072-57.8187 27.6072-71.2317C27.6072-84.7748 36.2019-86.8584 40.4992-86.8584 41.9316-86.8584 42.192-86.7281 42.9734-86.4677 41.0201-85.1655 39.848-82.9517 39.848-80.217 39.848-75.0082 44.0152-72.6641 47.401-72.6641 50.2658-72.6641 54.9539-74.6174 54.9539-80.3473 54.9539-85.6864 50.2658-91.1557 41.0201-91.1557 29.1698-91.1557 14.7151-86.2072 14.7151-71.1014L14.7151-57.8187 5.07868-57.8187 5.07868-52.2192 14.7151-52.2192 14.7151-5.59956 5.72978-5.59956 5.72978 0C8.7249-0.260444 18.4915-0.260444 22.1378-0.260444 25.9143-0.260444 36.4623-0.260444 39.5876 0L39.5876-5.59956 28.2583-5.59956 28.2583-52.2192Z" transform="matrix(1 0 0 1.00088 6982.5 3205.82)"/><path d="M42.3223 31.6441C42.3223 31.2534 42.3223 30.9929 40.1085 28.7791 27.0862 15.6267 19.7939-5.86001 19.7939-32.4254 19.7939-57.6885 25.9143-79.4357 41.0201-94.8019 42.3223-95.9739 42.3223-96.2344 42.3223-96.625 42.3223-97.4064 41.6711-97.6669 41.1503-97.6669 39.4574-97.6669 28.7791-88.2908 22.3983-75.529 15.757-62.3766 12.7618-48.4427 12.7618-32.4254 12.7618-20.8356 14.5849-5.33912 21.3565 8.59468 29.0396 24.2214 39.7179 32.6859 41.1503 32.6859 41.6711 32.6859 42.3223 32.4254 42.3223 31.6441Z" transform="matrix(1 0 0 1.00088 7040.6 3205.82)"/><path d="M51.1774-86.4677C47.401-82.6912 44.6663-80.0868 40.4992-80.0868 38.5458-80.0868 36.7228-80.4774 32.6859-83.2121 30.0813-84.7748 27.4769-86.4677 24.4818-86.4677 19.6636-86.4677 16.7987-83.2121 10.6782-76.4405L12.5014-74.6174C16.2778-78.3939 19.0124-80.9983 23.1796-80.9983 25.133-80.9983 26.956-80.6077 30.9929-77.873 33.5974-76.3104 36.2019-74.6174 39.197-74.6174 44.0152-74.6174 46.8801-77.873 53.0005-84.6446L51.1774-86.4677Z" fill="#70AD47" transform="matrix(1 0 0 1.00088 7096.78 3204.01)"/><path d="M43.8849-32.165 58.9907-49.4845C60.4232-51.1774 61.5952-52.2192 72.4036-52.2192L72.4036-57.8187C65.1112-57.5583 64.8507-57.5583 60.4232-57.5583 56.6468-57.5583 51.0472-57.5583 47.401-57.8187L47.401-52.2192C49.8752-52.2192 52.6099-51.5681 52.6099-50.6565 52.6099-50.3961 51.9587-49.4845 51.6983-49.224L40.3689-36.4623 27.4769-52.2192 32.9463-52.2192 32.9463-57.8187C29.9512-57.5583 21.0961-57.5583 17.5801-57.5583 13.6733-57.5583 6.64135-57.5583 2.99512-57.8187L2.99512-52.2192 12.241-52.2192 32.5556-27.4769 15.6267-8.33424C14.064-6.51112 13.1524-5.59956 2.344-5.59956L2.344 0C10.1573-0.260444 10.4178-0.260444 14.4547-0.260444 18.2311-0.260444 23.7005-0.260444 27.3468 0L27.3468-5.59956C24.8725-5.59956 22.1378-6.25068 22.1378-7.16223 22.1378-7.29245 22.1378-7.42268 23.0493-8.46446L36.0716-23.1796 50.5264-5.59956 45.057-5.59956 45.057 0C48.1823-0.260444 56.9072-0.260444 60.5534-0.260444 64.4601-0.260444 71.3619-0.260444 75.0082 0L75.0082-5.59956 65.8926-5.59956 43.8849-32.165Z" fill="#70AD47" transform="matrix(1 0 0 1.00088 7090 3205.82)"/><path d="M23.9609-49.8752C23.9609-53.3912 20.9658-56.1259 17.7102-56.1259 13.9338-56.1259 11.3294-53.1308 11.3294-49.8752 11.3294-45.9685 14.5849-43.4943 17.5801-43.4943 21.0961-43.4943 23.9609-46.2289 23.9609-49.8752ZM21.7471-1.30223C21.7471 3.25556 21.7471 12.5014 13.8036 22.268 13.0223 23.3099 13.0223 23.5703 13.0223 23.8307 13.0223 24.4818 13.6733 25.133 14.3245 25.133 15.236 25.133 24.3516 15.4965 24.3516 0.260444 24.3516-4.55779 23.9609-12.6316 17.5801-12.6316 13.8036-12.6316 11.3294-9.76669 11.3294-6.3809 11.3294-2.8649 13.8036 0 17.7102 0 20.1845 0 21.0961-0.781335 21.7471-1.30223Z" transform="matrix(1 0 0 1.00088 7167.32 3205.82)"/><path d="M31.9045-90.3744 14.8454-72.6641 16.9289-70.7108 31.7743-84.1237 46.7499-70.7108 48.8334-72.6641 31.9045-90.3744Z" fill="#0000FF" transform="matrix(1 0 0 1.00088 7234.54 3171.42)"/><path d="M57.6885-65.5019C57.6885-78.7846 53.5214-91.6766 42.8432-91.6766 24.6121-91.6766 5.2089-53.5214 5.2089-24.8725 5.2089-18.8823 6.51112 1.30223 20.1845 1.30223 37.8947 1.30223 57.6885-35.9414 57.6885-65.5019ZM18.2311-47.1405C20.1845-54.8237 22.9192-65.7623 28.1281-75.0082 32.4254-82.8215 36.9832-89.0721 42.713-89.0721 47.0103-89.0721 49.8752-85.4259 49.8752-72.9245 49.8752-68.2366 49.4845-61.7254 45.708-47.1405L18.2311-47.1405ZM44.7965-43.2339C41.541-30.4721 38.8063-22.268 34.1182-14.064 30.3418-7.42268 25.784-1.30223 20.3147-1.30223 16.2778-1.30223 13.0223-4.42757 13.0223-17.3196 13.0223-25.784 15.1058-34.6391 17.1893-43.2339L44.7965-43.2339Z" fill="#0000FF" transform="matrix(1 0 0 1.00088 7224.31 3205.82)"/><path d="M36.7228-32.4254C36.7228-42.3223 35.4205-58.4699 28.1281-73.5757 20.4449-89.2024 9.76669-97.6669 8.33424-97.6669 7.81334-97.6669 7.16223-97.4064 7.16223-96.625 7.16223-96.2344 7.16223-95.9739 9.37601-93.7601 22.3983-80.6077 29.6907-59.121 29.6907-32.5556 29.6907-7.29245 23.5703 14.4547 8.46446 29.8209 7.16223 30.9929 7.16223 31.2534 7.16223 31.6441 7.16223 32.4254 7.81334 32.6859 8.33424 32.6859 10.0271 32.6859 20.7053 23.3099 27.0862 10.548 33.7276-2.73468 36.7228-16.7987 36.7228-32.4254Z" transform="matrix(1 0 0 1.00088 7287.27 3205.82)"/></g></g></g></g></svg>